<svg aria-hidden="true" style="position: absolute; width: 0; height: 0; overflow: hidden;" version="1.1" xmlns="http://www.w3.org/2000/svg" xmlns:xlink="http://www.w3.org/1999/xlink">
<defs>
<symbol id="antenna" viewBox="0 0 64 32">
<path fill="#212121" style="fill: var(--color1, #212121)" d="M14.361 10.312l-3.94-3.969 0.437-2.154c0.105 0.042 0.226 0.067 0.354 0.068h0.003c0.004 0 0.008 0 0.012 0 0.556 0 1.008-0.451 1.008-1.008s-0.451-1.008-1.008-1.008c-0.556 0-1.008 0.451-1.008 1.008 0 0.121 0.021 0.237 0.060 0.345l-0.002-0.007-2.315 0.283-3.776-3.795c-0.045-0.046-0.107-0.074-0.176-0.075h-0c-0.068 0-0.13 0.028-0.174 0.073v0l-0.705 0.702c-0.045 0.045-0.073 0.107-0.073 0.176s0.028 0.131 0.073 0.176v0l0.38 0.385c-0.533 0.962-0.847 2.11-0.847 3.331 0 1.916 0.773 3.651 2.023 4.912l-0-0c0.020 0.019 0.043 0.034 0.068 0.045-0.015 0.076-0.024 0.165-0.024 0.255v2.888h-2.987c-0.687 0.001-1.244 0.557-1.245 1.244v0.498c0 0.138 0.112 0.249 0.249 0.249h11.449c0.137 0 0.249-0.111 0.249-0.249v-0.498c-0.001-0.687-0.557-1.244-1.244-1.244h-2.987v-1.28c0.427 0.094 0.918 0.148 1.422 0.149h0.001c1.204-0.001 2.336-0.309 3.321-0.85l-0.036 0.018 0.382 0.384c0.046 0.047 0.109 0.074 0.176 0.075 0.065-0 0.128-0.026 0.174-0.073l0.706-0.702c0.045-0.045 0.073-0.107 0.073-0.176s-0.028-0.131-0.073-0.176v0zM10.864 2.909c0.090-0.090 0.214-0.145 0.351-0.145 0.275 0 0.498 0.223 0.498 0.498s-0.223 0.498-0.498 0.498c-0 0-0 0-0 0h-0.001c-0.274-0.002-0.495-0.224-0.495-0.498 0-0.138 0.056-0.263 0.147-0.353l0-0h-0.001zM10.278 4.544l-0.279 1.375-0.548-0.552 0.828-0.823zM9.995 4.123l-0.896 0.891-0.693-0.697 1.589-0.194zM11.202 13.44c0.412 0 0.747 0.334 0.747 0.747v0 0.249h-10.951v-0.249c0-0.412 0.334-0.747 0.747-0.747v0h9.458zM7.718 12.444v0.498h-2.489v-0.498h2.489zM5.229 11.947v-1.892c0-0.604 0.558-1.095 1.244-1.095s1.245 0.491 1.245 1.095v1.892h-2.489zM8.215 11.155v-1.1c0-0.878-0.781-1.593-1.742-1.593-0.008-0-0.018-0-0.027-0-0.631 0-1.185 0.33-1.5 0.826l-0.004 0.007c-1.101-1.158-1.779-2.728-1.779-4.457 0-1.080 0.264-2.098 0.732-2.993l-0.017 0.036 8.681 8.731c-0.851 0.442-1.857 0.701-2.924 0.701-0.503 0-0.993-0.058-1.463-0.167l0.043 0.008zM13.484 10.836l-9.827-9.884 0.352-0.351 3.703 3.724c0.002 0 0.003 0.003 0.004 0.004l6.121 6.156-0.353 0.351z"></path>
<path fill="#2196f3" style="fill: var(--color2, #2196f3)" d="M6.475 9.458h-0.002c-0 0-0.001 0-0.001 0-0.412 0-0.747 0.334-0.747 0.747s0.334 0.746 0.745 0.747h0.002c0 0 0.001 0 0.001 0 0.412 0 0.747-0.334 0.747-0.747s-0.334-0.746-0.746-0.747h-0zM6.649 10.381c-0.045 0.045-0.107 0.073-0.176 0.073-0.138 0-0.249-0.111-0.249-0.249s0.111-0.249 0.248-0.249h0c0.137 0.001 0.247 0.112 0.247 0.249 0 0.069-0.028 0.131-0.073 0.176v0h0.002z"></path>
</symbol>
<symbol id="astronaut" viewBox="0 0 64 32">
<path fill="#2196f3" style="fill: var(--color2, #2196f3)" d="M14.921 2.111c-0.030-0.089-0.106-0.155-0.199-0.169l-0.001-0-0.892-0.13-0.399-0.808c-0.083-0.17-0.363-0.17-0.446 0l-0.399 0.808-0.892 0.13c-0.121 0.018-0.213 0.121-0.213 0.246 0 0.070 0.029 0.133 0.075 0.178l0.646 0.629-0.152 0.888c-0.016 0.093 0.022 0.188 0.099 0.244 0.077 0.056 0.179 0.063 0.262 0.019l0.797-0.419 0.797 0.419c0.034 0.018 0.073 0.028 0.116 0.028 0.138 0 0.249-0.112 0.249-0.249 0-0.015-0.001-0.029-0.004-0.043l0 0.002-0.152-0.888 0.645-0.629c0.046-0.045 0.075-0.109 0.075-0.178 0-0.027-0.004-0.054-0.013-0.079l0.001 0.002zM13.772 2.731c-0.059 0.057-0.085 0.14-0.071 0.22l0.089 0.52-0.467-0.245c-0.034-0.018-0.074-0.029-0.116-0.029s-0.082 0.011-0.117 0.029l0.001-0.001-0.467 0.245 0.089-0.52c0.002-0.013 0.004-0.027 0.004-0.042 0-0.070-0.029-0.133-0.075-0.178l-0-0-0.378-0.368 0.522-0.076c0.081-0.012 0.151-0.063 0.188-0.136l0.233-0.473 0.233 0.473c0.036 0.074 0.106 0.125 0.188 0.136l0.522 0.076-0.378 0.368zM12.196 9.577h-0.498v0.498h0.498v-0.498zM12.196 10.573h-0.498v0.498h0.498v-0.498zM12.693 10.075h-0.498v0.498h0.498v-0.498zM11.698 10.075h-0.498v0.498h0.498v-0.498zM10.453 12.315h-0.498v0.498h0.498v-0.498zM10.453 13.31h-0.498v0.498h0.498v-0.498zM10.951 12.813h-0.498v0.498h0.498v-0.498zM9.956 12.813h-0.498v0.498h0.498v-0.498zM7.467 11.319h-0.498v0.498h0.498v-0.498zM7.467 12.315h-0.498v0.498h0.498v-0.498zM7.964 11.817h-0.498v0.498h0.498v-0.498zM6.969 11.817h-0.498v0.498h0.498v-0.498zM2.738 2.857h-0.498v0.498h0.498v-0.498zM2.738 3.853h-0.498v0.498h0.498v-0.498zM3.235 3.355h-0.498v0.498h0.498v-0.498zM2.24 3.355h-0.498v0.498h0.498v-0.498z"></path>
<path fill="#212121" style="fill: var(--color1, #212121)" d="M11.533 6.608c-0.131-0.176-0.326-0.297-0.55-0.328l-0.004-0c-0.036-0.005-0.077-0.008-0.118-0.008-0.192 0-0.368 0.065-0.508 0.174l0.002-0.001-0.585 0.448-0.886 0.661-0.634-0.253c1.13-0.507 1.92-1.637 1.92-2.949 0-1.784-1.457-3.236-3.248-3.236s-3.249 1.452-3.249 3.236c0 0.647 0.193 1.248 0.523 1.754l-1.292-0.011c-0.004 0-0.007 0.002-0.011 0.002-0.026 0.001-0.051 0.007-0.074 0.015l0.002-0.001c-0.006 0.002-0.012 0.003-0.018 0.006-0.003 0.001-0.006 0.002-0.009 0.003l-1.509 0.745c-0 0-0.001 0-0.001 0l-0.883 0.425c-0.011 0.005-0.021 0.011-0.030 0.017l0.001-0c-0.225 0.151-0.371 0.404-0.371 0.692 0 0.139 0.034 0.269 0.094 0.384l-0.002-0.005c0.102 0.198 0.276 0.346 0.487 0.413l0.006 0.002c0.075 0.025 0.161 0.039 0.251 0.039 0.144 0 0.279-0.037 0.397-0.101l-0.004 0.002 0.648-0.344 1.056-0.546 0.633-0.004-2.54 2.527c0 0-0 0-0.001 0.001l-0.625 0.622c-0.141 0.14-0.229 0.333-0.229 0.548 0 0.001 0 0.002 0 0.002v-0c0.001 0.429 0.349 0.777 0.778 0.777 0 0 0.001 0 0.001 0h-0c0.2 0 0.399-0.076 0.551-0.227l0.613-0.611 0.812-0.607 0.42 0.419-1.447 1.441c-0.141 0.14-0.229 0.333-0.229 0.548 0 0.001 0 0.001 0 0.002v-0c0 0.208 0.081 0.403 0.229 0.55 0.141 0.14 0.335 0.226 0.549 0.226 0.001 0 0.001 0 0.002 0h-0c0.199 0 0.399-0.076 0.551-0.226l2.095-2.087c0.003-0.003 0.007-0.004 0.010-0.007l2.411-2.64 1.62 0.23c0.012 0.002 0.023 0.003 0.035 0.003 0.030 0 0.059-0.007 0.087-0.018 0.008-0.003 0.015-0.007 0.023-0.011 0.009-0.004 0.018-0.007 0.027-0.013l1.5-0.995c0.006-0.004 0.009-0.010 0.014-0.014s0.013-0.007 0.019-0.012l0.593-0.556c0.162-0.152 0.263-0.367 0.263-0.607 0-0.187-0.062-0.359-0.166-0.498l0.002 0.002zM0.994 8.293c-0.046 0.025-0.1 0.040-0.158 0.040-0.036 0-0.072-0.006-0.104-0.017l0.002 0.001c-0.137-0.043-0.235-0.17-0.235-0.319 0-0.11 0.053-0.207 0.135-0.268l0.001-0.001 0.613-0.295 0.148 0.431 0.062 0.181-0.463 0.246zM2.626 7.44l-0.723 0.373-0.119-0.348-0.086-0.25 0.946-0.467-0.019 0.692zM9.673 4.35c0 0.429-0.102 0.833-0.279 1.194l-1.951-0.886c-0.020-0.268-0.16-0.5-0.365-0.646l-0.003-0.002 0.683-2.268c1.109 0.353 1.915 1.388 1.915 2.608zM4.171 4.35c0-1.51 1.234-2.738 2.751-2.738 0.118 0 0.233 0.010 0.348 0.025l-0.668 2.218c-0.009 0-0.017-0.003-0.027-0.003-0 0-0 0-0 0-0.482 0-0.872 0.39-0.873 0.871v0c0.001 0.481 0.392 0.871 0.874 0.871 0 0 0 0 0 0v0c0.324 0 0.604-0.179 0.755-0.441l1.803 0.819c-0.502 0.675-1.304 1.115-2.211 1.115-1.517 0-2.751-1.228-2.751-2.738zM6.951 4.724c-0.001 0.206-0.169 0.373-0.375 0.373-0 0-0.001 0-0.001 0h0c-0 0-0 0-0.001 0-0.207 0-0.374-0.167-0.375-0.373v-0c0-0.206 0.169-0.373 0.376-0.373s0.376 0.167 0.376 0.373zM1.15 11.735c-0.051 0.051-0.122 0.082-0.2 0.082s-0.148-0.031-0.199-0.082l0 0c-0.051-0.050-0.082-0.12-0.082-0.197s0.031-0.147 0.082-0.197l0-0 0.449-0.447 0.398 0.396-0.447 0.446zM2.65 13.477c-0.051 0.051-0.122 0.082-0.2 0.082s-0.148-0.031-0.199-0.082l0 0c-0.051-0.050-0.082-0.12-0.082-0.197s0.031-0.147 0.082-0.197l0-0 0.449-0.448 0.397 0.396-0.448 0.446zM4.275 11.858l-0.001 0.001-0.823 0.821-0.398-0.396 0.824-0.82c0.019-0.019 0.030-0.041 0.042-0.063 0.003-0.006 0.009-0.012 0.012-0.019 0.008-0.019 0.009-0.040 0.012-0.060 0.002-0.012 0.006-0.022 0.006-0.034 0-0.016-0.006-0.033-0.009-0.049-0.003-0.015-0.003-0.030-0.009-0.045-0.011-0.025-0.026-0.046-0.043-0.064l0 0c-0.005-0.006-0.006-0.013-0.012-0.018h-0s0-0.001-0-0.001l-0.75-0.747c-0.008-0.008-0.018-0.011-0.027-0.018-0.012-0.010-0.025-0.019-0.039-0.026l-0.001-0.001c-0.012-0.006-0.027-0.011-0.042-0.015l-0.002-0c-0.014-0.004-0.030-0.008-0.047-0.009l-0.001-0c-0.003-0-0.007-0-0.011-0-0.012 0-0.024 0.001-0.035 0.003l0.001-0c-0.017 0.002-0.032 0.004-0.048 0.010s-0.031 0.013-0.045 0.021l0.001-0.001c-0.009 0.005-0.020 0.007-0.028 0.013l-0.828 0.618-0.42-0.419 1.12-1.114 2.035 2.002-0.433 0.429zM7.457 8.584c-0.007-0.001-0.014 0.002-0.021 0.001-0.004-0-0.008-0-0.012-0-0.015 0-0.029 0.001-0.043 0.004l0.001-0c-0.032 0.005-0.061 0.016-0.087 0.033l0.001-0.001c-0.015 0.009-0.027 0.018-0.039 0.029l0-0c-0.006 0.005-0.013 0.008-0.019 0.014l-2.192 2.401-2.020-1.986 1.322-1.315c0.045-0.045 0.073-0.107 0.073-0.176 0-0.138-0.112-0.249-0.249-0.249-0 0-0 0-0.001 0h0l-1.036 0.006 0.013-0.75 1.449 0.012c0.59 0.605 1.413 0.98 2.323 0.98 0 0 0.001 0 0.002 0h-0c0.204 0 0.403-0.021 0.597-0.057 0.019 0.015 0.037 0.030 0.060 0.039l1.125 0.448 0.071 0.354 0.083 0.413-1.401-0.199zM9.343 8.667l-0.146-0.727 0.675-0.504 0.442 0.587-0.971 0.644zM11.094 7.346l-0.391 0.367-0.435-0.577 0.388-0.297c0.073-0.056 0.164-0.078 0.253-0.067 0.090 0.013 0.17 0.060 0.224 0.133 0.041 0.055 0.066 0.124 0.066 0.199 0 0.096-0.041 0.182-0.105 0.243l-0 0z"></path>
<path fill="#212121" style="fill: var(--color1, #212121)" d="M6.348 8.654l-1-0.996c-0.045-0.045-0.107-0.073-0.176-0.073s-0.131 0.028-0.176 0.073l-1 0.996c-0.045 0.045-0.073 0.108-0.073 0.176s0.028 0.131 0.073 0.176v0l1 0.996c0.045 0.045 0.107 0.073 0.176 0.073s0.131-0.028 0.176-0.073v0l1-0.996c0.045-0.045 0.073-0.107 0.073-0.176s-0.028-0.131-0.073-0.176v0zM5.172 9.475l-0.647-0.644 0.647-0.644 0.647 0.644-0.647 0.644zM8.010 2.366l-0.12 0.483c0.033 0.008 0.811 0.211 0.811 1.003h0.498c0-0.941-0.777-1.384-1.188-1.486zM9.198 4.35h-0.498v0.498h0.498v-0.498z"></path>
</symbol>
<symbol id="clock" viewBox="0 0 64 32">
<path fill="#212121" style="fill: var(--color1, #212121)" d="M14.605 7.14c-0.001-3.944-3.199-7.141-7.144-7.14s-7.141 3.199-7.14 7.144c0.001 3.168 2.063 5.853 4.919 6.788l0.051 0.014c0.028 0.009 0.058 0.013 0.087 0.013 0.056 0 0.111-0.015 0.16-0.044 0.063-0.037 0.11-0.097 0.132-0.166l1.804-5.717c0.492-0.002 0.89-0.401 0.89-0.893 0-0.493-0.4-0.893-0.893-0.893-0.141 0-0.275 0.033-0.394 0.091l0.005-0.002-2.383-2.383c-0.053-0.052-0.126-0.083-0.207-0.083-0.164 0-0.298 0.133-0.298 0.298 0 0.080 0.032 0.153 0.083 0.207l-0-0 2.381 2.384c-0.056 0.112-0.089 0.245-0.089 0.385 0 0.281 0.132 0.531 0.338 0.691l0.002 0.001-1.719 5.447c-3.396-1.251-5.135-5.019-3.884-8.415s5.018-5.135 8.415-3.884c3.396 1.251 5.135 5.018 3.884 8.415-0.628 1.671-1.868 2.99-3.441 3.704l-0.041 0.017-0.186-0.875c-0.029-0.136-0.149-0.236-0.291-0.236-0.076 0-0.146 0.029-0.198 0.076l0-0-1.79 1.599c-0.061 0.055-0.1 0.134-0.1 0.222 0 0.132 0.086 0.244 0.206 0.283l0.002 0.001 2.286 0.73c0.027 0.009 0.059 0.014 0.091 0.014 0.164 0 0.297-0.133 0.297-0.297 0-0.022-0.002-0.044-0.007-0.064l0 0.002-0.182-0.858c2.58-1.108 4.353-3.627 4.353-6.56 0-0.005 0-0.011-0-0.016v0.001zM7.463 6.843c0.164 0 0.298 0.133 0.298 0.298s-0.133 0.298-0.298 0.298v0c-0.164 0-0.298-0.133-0.298-0.298s0.133-0.298 0.298-0.298v0zM8.443 13.78l1.019-0.909 0.281 1.325-1.301-0.416z"></path>
<path fill="#2196f3" style="fill: var(--color2, #2196f3)" d="M7.165 1.486v0.595c0 0.164 0.133 0.298 0.298 0.298s0.298-0.133 0.298-0.298v0-0.595c0-0.164-0.133-0.298-0.298-0.298s-0.298 0.133-0.298 0.298v0zM1.809 6.843c-0.164 0-0.298 0.133-0.298 0.298s0.133 0.298 0.298 0.298h0.595c0.164 0 0.298-0.133 0.298-0.298s-0.133-0.298-0.298-0.298h-0.595zM13.117 7.438c0.164 0 0.298-0.133 0.298-0.298s-0.133-0.298-0.298-0.298h-0.595c-0.164 0-0.298 0.133-0.298 0.298s0.133 0.298 0.298 0.298h0.595z"></path>
</symbol>
<symbol id="diagram" viewBox="0 0 64 32">
<path fill="#2196f3" style="fill: var(--color2, #2196f3)" d="M6.965 6.983h0.497v2.239h-0.497v-2.239zM8.955 7.979h0.498v1.244h-0.498v-1.244zM4.975 8.725h0.497v0.498h-0.497v-0.498zM3.483 8.476h0.498v0.746h-0.498v-0.746z"></path>
<path fill="#212121" style="fill: var(--color1, #212121)" d="M0.746 13.202h11.94c0 0 0 0 0 0 0.412 0 0.746-0.334 0.746-0.746v0-0.995c0-0.412-0.334-0.746-0.746-0.746v0h-0.249v-6.204l1.413-1.338c0.097 0.049 0.211 0.077 0.332 0.077 0.415 0 0.751-0.336 0.751-0.75s-0.336-0.75-0.751-0.75c-0.415 0-0.751 0.336-0.751 0.75 0 0.115 0.026 0.224 0.072 0.322l-0.002-0.005-1.065 1.009v-0.574c0-0.412-0.334-0.746-0.746-0.746v0h-9.95c-0.412 0-0.746 0.334-0.746 0.746v0 7.463h-0.249c-0.412 0-0.746 0.334-0.746 0.746v0 0.995c0 0.412 0.334 0.746 0.746 0.746v0zM14.179 2.257c0.137 0 0.249 0.111 0.249 0.249s-0.111 0.249-0.249 0.249v0c-0.137 0-0.249-0.111-0.249-0.249s0.111-0.249 0.249-0.249v0zM1.492 3.252c0-0.137 0.111-0.249 0.249-0.249h9.95c0.137 0 0.249 0.111 0.249 0.249v1.045l-0.498 0.473v-1.020c0-0.138-0.112-0.249-0.249-0.249h-8.955c-0.137 0-0.249 0.111-0.249 0.249v6.219c0 0.137 0.112 0.249 0.249 0.249h8.955c0.138 0 0.249-0.111 0.249-0.249v-4.515l0.498-0.471v5.732h-10.448v-7.462zM3.731 6.486c-0.001 0-0.001 0-0.002 0-0.412 0-0.746 0.334-0.746 0.746s0.334 0.746 0.746 0.746c0.202 0 0.385-0.080 0.519-0.21l-0 0 0.865 0.434c0.032 0.017 0.071 0.026 0.111 0.026 0.074 0 0.14-0.032 0.186-0.083l0-0 1.838-2.068 1.807 1.354c0.097 0.073 0.232 0.065 0.32-0.018l1.57-1.488v3.795h-8.458v-5.722h8.458v1.242l-1.76 1.667-1.822-1.366c-0.041-0.031-0.093-0.050-0.149-0.050-0.074 0-0.14 0.032-0.186 0.083l-0 0-1.863 2.097-0.697-0.348c0.005-0.030 0.008-0.060 0.009-0.090 0-0.412-0.334-0.746-0.746-0.746v0zM3.98 7.232c0 0.137-0.111 0.249-0.249 0.249s-0.249-0.111-0.249-0.249v0c0-0.137 0.111-0.249 0.249-0.249s0.249 0.111 0.249 0.249v0zM5.473 11.212h2.487v0.249c0 0.137-0.111 0.249-0.249 0.249h-1.99c-0.137 0-0.249-0.111-0.249-0.249v0-0.249zM0.498 11.461c0-0.137 0.111-0.249 0.249-0.249h4.229v0.249c0 0.412 0.334 0.746 0.746 0.746v0h1.99c0.412 0 0.746-0.334 0.746-0.746v0-0.249h4.229c0.137 0 0.249 0.111 0.249 0.249v0.995c0 0.137-0.111 0.249-0.249 0.249h-11.94c-0 0-0 0-0 0-0.137 0-0.249-0.111-0.249-0.249 0 0 0 0 0 0v0-0.995z"></path>
</symbol>
<symbol id="envelope" viewBox="0 0 64 32">
<path fill="#757575" style="fill: var(--color3, #757575)" d="M3.093 0h-2.773c-0.176 0-0.32 0.144-0.32 0.32v1.92c0 0.176 0.144 0.32 0.32 0.32h2.773c0.176 0 0.32-0.144 0.32-0.32v-1.92c0-0.176-0.144-0.32-0.32-0.32zM3.093 0.213c0.014 0 0.028 0.003 0.041 0.008l-1.428 1.237-1.428-1.237c0.012-0.005 0.026-0.008 0.041-0.008v0h2.773zM3.093 2.347h-2.773c-0.059 0-0.107-0.048-0.107-0.107v0-1.793l1.423 1.234c0.019 0.016 0.043 0.026 0.070 0.026s0.051-0.010 0.070-0.026l-0 0 1.423-1.234v1.793c0 0.059-0.048 0.107-0.107 0.107v0z"></path>
</symbol>
<symbol id="facebook" viewBox="0 0 64 32">
<path fill="#afb1b8" style="fill: var(--color4, #afb1b8)" d="M2.844 0.708h0.39v-0.678c-0.164-0.019-0.355-0.030-0.548-0.030-0.007 0-0.014 0-0.021 0h0.001c-0.562 0-0.947 0.353-0.947 1.003v0.597h-0.62v0.758h0.62v1.908h0.76v-1.908h0.595l0.094-0.758h-0.689v-0.523c0-0.219 0.059-0.369 0.365-0.369z"></path>
</symbol>
<symbol id="instagram" viewBox="0 0 64 32">
<path fill="#afb1b8" style="fill: var(--color4, #afb1b8)" d="M4.262 1.254c-0.010-0.227-0.046-0.383-0.099-0.518-0.056-0.148-0.14-0.274-0.246-0.378l-0-0c-0.104-0.106-0.23-0.189-0.37-0.244l-0.007-0.002c-0.136-0.052-0.291-0.089-0.518-0.099-0.228-0.011-0.301-0.013-0.88-0.013s-0.652 0.003-0.879 0.013c-0.227 0.010-0.383 0.046-0.517 0.099-0.148 0.057-0.275 0.141-0.379 0.247l-0 0c-0.106 0.104-0.189 0.23-0.243 0.37l-0.002 0.007c-0.053 0.136-0.089 0.291-0.099 0.518-0.011 0.228-0.013 0.301-0.013 0.88s0.003 0.652 0.013 0.879c0.010 0.227 0.047 0.382 0.099 0.518 0.057 0.148 0.141 0.274 0.246 0.378l0 0c0.104 0.106 0.23 0.189 0.37 0.243l0.007 0.002c0.136 0.053 0.291 0.089 0.518 0.099 0.228 0.010 0.3 0.013 0.879 0.013s0.652-0.003 0.879-0.013c0.227-0.010 0.382-0.046 0.518-0.099 0.288-0.113 0.511-0.337 0.622-0.617l0.003-0.007c0.052-0.136 0.089-0.291 0.099-0.518 0.010-0.228 0.012-0.3 0.012-0.879s-0.001-0.652-0.011-0.879zM3.878 2.996c-0.009 0.208-0.044 0.321-0.074 0.396-0.074 0.187-0.218 0.331-0.4 0.403l-0.005 0.002c-0.075 0.029-0.188 0.064-0.396 0.073-0.225 0.010-0.292 0.013-0.862 0.013s-0.638-0.003-0.862-0.013c-0.208-0.009-0.321-0.044-0.396-0.073-0.096-0.036-0.178-0.090-0.245-0.159l-0-0c-0.069-0.067-0.123-0.149-0.158-0.24l-0.002-0.005c-0.029-0.075-0.064-0.188-0.073-0.396-0.010-0.225-0.013-0.293-0.013-0.862s0.003-0.638 0.013-0.862c0.009-0.208 0.044-0.321 0.073-0.396 0.036-0.096 0.090-0.178 0.16-0.245l0-0c0.067-0.069 0.149-0.123 0.241-0.158l0.005-0.002c0.075-0.029 0.188-0.064 0.396-0.073 0.225-0.010 0.292-0.012 0.862-0.012s0.638 0.003 0.862 0.012c0.208 0.009 0.321 0.044 0.396 0.073 0.092 0.034 0.177 0.088 0.245 0.159 0.071 0.069 0.125 0.153 0.159 0.245 0.029 0.075 0.064 0.188 0.073 0.396 0.010 0.225 0.013 0.292 0.013 0.862s-0.003 0.636-0.013 0.861z"></path>
<path fill="#afb1b8" style="fill: var(--color4, #afb1b8)" d="M2.141 1.038c-0.605 0-1.096 0.491-1.096 1.096v0c0 0 0 0 0 0 0 0.605 0.491 1.096 1.096 1.096s1.096-0.491 1.096-1.096c0-0.605-0.491-1.096-1.096-1.096-0 0-0 0-0 0v0zM2.141 2.845c-0.393-0-0.711-0.318-0.711-0.711s0.318-0.711 0.711-0.711c0 0 0 0 0 0v0c0.393 0 0.711 0.318 0.711 0.711s-0.318 0.711-0.711 0.711v0zM3.537 0.994c0 0.141-0.115 0.256-0.256 0.256s-0.256-0.115-0.256-0.256v0c0-0.141 0.115-0.256 0.256-0.256s0.256 0.115 0.256 0.256v0z"></path>
</symbol>
<symbol id="linkedin" viewBox="0 0 64 32">
<path fill="#afb1b8" style="fill: var(--color4, #afb1b8)" d="M4.266 4.267h0.001v-1.565c0-0.765-0.165-1.355-1.060-1.355-0.43 0-0.719 0.236-0.837 0.46h-0.012v-0.388h-0.849v2.848h0.884v-1.41c0-0.371 0.070-0.731 0.53-0.731 0.453 0 0.46 0.424 0.46 0.754v1.387h0.883zM0.070 1.418h0.885v2.849h-0.885v-2.849zM0.512 0c-0.283 0-0.512 0.229-0.512 0.512v0c0 0.283 0.23 0.517 0.512 0.517s0.512-0.234 0.512-0.517c-0-0.283-0.229-0.512-0.512-0.512h-0z"></path>
</symbol>
<symbol id="logo-four" viewBox="0 0 64 32">
<path fill="#2196f3" style="fill: var(--color2, #2196f3)" d="M2.646 2.737h-0.001c-0.483 0-0.874 0.381-0.874 0.852v0.001c0 0.47 0.391 0.852 0.874 0.852h0.001c0.483 0 0.874-0.381 0.874-0.852v-0.001c0-0.47-0.391-0.851-0.874-0.851zM9.096 2.465c-0.002-0.653-0.268-1.279-0.742-1.741s-1.116-0.722-1.786-0.724c-0.67 0.001-1.313 0.261-1.788 0.723s-0.741 1.088-0.742 1.742v3.602s5.058-0.549 5.059-3.602v-0zM0 7.25c0.002 0.476 0.2 0.904 0.516 1.211l0 0c0.321 0.311 0.76 0.504 1.243 0.504h0c0.483-0 0.922-0.192 1.243-0.504l-0 0c0.317-0.307 0.514-0.736 0.517-1.211v-2.507s-3.52 0.383-3.52 2.506zM1.76 7.699c-0 0-0.001 0-0.001 0-0.095 0-0.183-0.028-0.257-0.077l0.002 0.001c-0.075-0.049-0.133-0.118-0.169-0.199l-0.001-0.003c-0.022-0.051-0.035-0.11-0.035-0.172 0-0.031 0.003-0.061 0.009-0.090l-0 0.003c0.018-0.087 0.062-0.167 0.126-0.23 0.063-0.061 0.143-0.105 0.233-0.122l0.003-0c0.027-0.006 0.058-0.009 0.090-0.009 0.063 0 0.124 0.013 0.179 0.035l-0.003-0.001c0.084 0.034 0.156 0.092 0.207 0.165 0.049 0.070 0.078 0.157 0.078 0.25 0 0.062-0.013 0.121-0.036 0.175l0.001-0.003c-0.024 0.057-0.058 0.106-0.1 0.146l-0 0c-0.043 0.042-0.094 0.075-0.15 0.098-0.052 0.022-0.113 0.034-0.177 0.034-0 0-0 0-0 0v0-0.002zM5.353 7.42h-0.36v0.372h-0.188v-0.91h0.593v0.152h-0.405v0.235h0.36v0.151zM6.254 7.357c0 0.090-0.016 0.168-0.048 0.236-0.030 0.065-0.077 0.119-0.135 0.155l-0.001 0.001c-0.056 0.035-0.123 0.055-0.196 0.055-0.002 0-0.005-0-0.007-0h0c-0.075 0-0.143-0.018-0.202-0.054-0.060-0.037-0.107-0.090-0.137-0.153l-0.001-0.002c-0.031-0.066-0.049-0.143-0.049-0.225 0-0.003 0-0.006 0-0.008v0-0.045c0-0.090 0.016-0.169 0.048-0.236s0.078-0.121 0.137-0.157c0.059-0.037 0.127-0.055 0.203-0.055s0.143 0.018 0.202 0.055c0.059 0.036 0.105 0.089 0.137 0.157s0.049 0.147 0.049 0.236v0.041zM6.064 7.316c0-0.095-0.017-0.168-0.051-0.218-0.030-0.045-0.081-0.074-0.139-0.074-0.003 0-0.005 0-0.008 0h0c-0.002-0-0.004-0-0.007-0-0.058 0-0.108 0.029-0.138 0.073l-0 0.001c-0.034 0.049-0.052 0.12-0.052 0.215v0.044c0 0.093 0.017 0.165 0.051 0.216s0.083 0.077 0.148 0.077c0.002 0 0.005 0 0.007 0 0.057 0 0.108-0.029 0.137-0.073l0-0.001c0.034-0.050 0.051-0.122 0.051-0.216v-0.044zM6.862 7.553c0-0.002 0-0.003 0-0.005 0-0.031-0.015-0.058-0.037-0.076l-0-0c-0.025-0.019-0.070-0.039-0.135-0.060-0.060-0.019-0.111-0.040-0.16-0.065l0.005 0.003c-0.103-0.056-0.155-0.131-0.155-0.226 0-0.049 0.014-0.093 0.041-0.131s0.068-0.069 0.119-0.091c0.052-0.022 0.11-0.032 0.175-0.032s0.123 0.012 0.174 0.036c0.051 0.023 0.090 0.057 0.118 0.099s0.043 0.092 0.043 0.146h-0.188c0-0.042-0.013-0.074-0.039-0.097s-0.063-0.035-0.111-0.035c-0.046 0-0.082 0.010-0.107 0.029-0.023 0.017-0.038 0.044-0.038 0.074 0 0.001 0 0.002 0 0.002v-0c0 0.029 0.015 0.054 0.044 0.074s0.074 0.039 0.132 0.056c0.107 0.032 0.184 0.072 0.233 0.119s0.073 0.107 0.073 0.177c0 0.079-0.030 0.141-0.089 0.186s-0.14 0.067-0.241 0.067c-0.070 0-0.134-0.013-0.191-0.038-0.054-0.023-0.099-0.059-0.131-0.105l-0.001-0.001c-0.028-0.042-0.045-0.094-0.045-0.15 0-0.002 0-0.004 0-0.006v0h0.188c0 0.1 0.060 0.151 0.18 0.151 0.045 0 0.079-0.009 0.105-0.027 0.023-0.016 0.037-0.043 0.037-0.073 0-0.001-0-0.003-0-0.004v0zM7.862 7.034h-0.279v0.758h-0.188v-0.758h-0.275v-0.152h0.741v0.152zM8.517 7.398h-0.36v0.244h0.423v0.151h-0.61v-0.91h0.609v0.152h-0.421v0.217h0.36v0.147zM9.027 7.459h-0.149v0.333h-0.188v-0.91h0.338c0.107 0 0.19 0.024 0.249 0.072s0.087 0.116 0.087 0.203c0 0.062-0.014 0.114-0.041 0.156-0.030 0.044-0.072 0.078-0.12 0.098l-0.002 0.001 0.197 0.372v0.009h-0.201l-0.171-0.333zM8.877 7.307h0.151c0.047 0 0.083-0.012 0.109-0.036 0.024-0.024 0.039-0.056 0.039-0.093 0-0.002-0-0.005-0-0.007v0c0-0.043-0.012-0.077-0.037-0.101s-0.061-0.037-0.112-0.037h-0.151v0.273zM10.014 7.471v0.321h-0.188v-0.91h0.355c0.068 0 0.128 0.012 0.18 0.038s0.092 0.061 0.12 0.107c0.028 0.046 0.042 0.098 0.042 0.157 0 0.089-0.030 0.16-0.092 0.211s-0.145 0.077-0.253 0.077h-0.164zM10.014 7.319h0.167c0.050 0 0.087-0.012 0.113-0.035s0.039-0.057 0.039-0.1c0-0.002 0-0.004 0-0.007 0-0.039-0.015-0.075-0.040-0.102l0 0c-0.026-0.028-0.063-0.042-0.109-0.043h-0.172v0.286zM11.2 7.398h-0.36v0.244h0.422v0.151h-0.61v-0.91h0.609v0.152h-0.421v0.217h0.36v0.147zM12.070 7.034h-0.279v0.758h-0.188v-0.758h-0.275v-0.152h0.741v0.152zM12.725 7.398h-0.36v0.244h0.422v0.151h-0.61v-0.91h0.609v0.152h-0.421v0.217h0.36v0.147zM13.234 7.459h-0.149v0.333h-0.188v-0.91h0.338c0.108 0 0.191 0.024 0.249 0.072s0.087 0.116 0.087 0.203c0 0.062-0.013 0.114-0.041 0.156-0.030 0.044-0.072 0.078-0.12 0.098l-0.002 0.001 0.197 0.372v0.009h-0.201l-0.171-0.333zM13.085 7.307h0.151c0.047 0 0.083-0.012 0.109-0.036 0.024-0.024 0.039-0.056 0.039-0.092 0-0.002-0-0.005-0-0.007v0c0-0.043-0.012-0.077-0.037-0.101s-0.061-0.037-0.112-0.037h-0.151v0.273zM14.187 7.553c0-0.002 0-0.003 0-0.005 0-0.031-0.015-0.058-0.037-0.076l-0-0c-0.025-0.019-0.070-0.039-0.135-0.060-0.060-0.019-0.111-0.040-0.16-0.065l0.005 0.003c-0.103-0.056-0.155-0.131-0.155-0.226 0-0.049 0.014-0.093 0.041-0.131s0.068-0.069 0.119-0.091c0.050-0.021 0.108-0.032 0.168-0.032 0.002 0 0.005 0 0.007 0h-0c0.065 0 0.123 0.012 0.174 0.036s0.090 0.057 0.118 0.099c0.028 0.043 0.042 0.092 0.042 0.146h-0.188c0-0.042-0.013-0.074-0.039-0.097s-0.063-0.035-0.111-0.035c-0.046 0-0.082 0.010-0.107 0.029-0.023 0.017-0.038 0.044-0.038 0.074 0 0.001 0 0.002 0 0.002v-0c0 0.029 0.015 0.054 0.044 0.074s0.074 0.039 0.132 0.056c0.107 0.032 0.185 0.072 0.233 0.119s0.073 0.107 0.073 0.177c0 0.079-0.030 0.141-0.089 0.186s-0.14 0.067-0.241 0.067c-0.070 0-0.134-0.013-0.191-0.038-0.054-0.023-0.099-0.059-0.131-0.105l-0.001-0.001c-0.028-0.042-0.045-0.094-0.045-0.15 0-0.002 0-0.004 0-0.006v0h0.188c0 0.1 0.060 0.151 0.18 0.151 0.045 0 0.079-0.009 0.105-0.027 0.023-0.016 0.037-0.043 0.037-0.073 0-0.001-0-0.003-0-0.004v0z"></path>
</symbol>
<symbol id="logo-five" viewBox="0 0 64 32">
<path fill="#afb1b8" style="fill: var(--color4, #afb1b8)" d="M0.957 8.379c0.049 0.061 0.075 0.137 0.074 0.215 0 0.005 0 0.011 0 0.017 0 0.102-0.044 0.193-0.114 0.255l-0 0c-0.095 0.072-0.213 0.108-0.333 0.099h-0.584v-1.366h0.572c0.010-0.001 0.021-0.001 0.032-0.001 0.107 0 0.206 0.034 0.286 0.093l-0.001-0.001c0.068 0.058 0.111 0.143 0.111 0.239 0 0.006-0 0.012-0 0.017l0-0.001c0.003 0.075-0.020 0.149-0.066 0.209-0.044 0.053-0.104 0.091-0.172 0.106l-0.002 0c0.077 0.014 0.148 0.055 0.198 0.117zM0.272 8.173h0.244c0.056 0.004 0.111-0.012 0.156-0.045 0.033-0.030 0.053-0.073 0.053-0.12 0-0.005-0-0.009-0.001-0.014l0 0.001c0-0.003 0-0.007 0-0.012 0-0.048-0.020-0.091-0.052-0.122l-0-0c-0.039-0.029-0.088-0.047-0.141-0.047-0.007 0-0.013 0-0.020 0.001l0.001-0h-0.24v0.358zM0.696 8.697c0.036-0.031 0.058-0.077 0.058-0.128 0-0.004-0-0.008-0-0.011l0 0.001c0-0.003 0-0.006 0-0.010 0-0.052-0.023-0.099-0.059-0.13l-0-0c-0.041-0.031-0.094-0.050-0.15-0.050-0.006 0-0.011 0-0.017 0.001l0.001-0h-0.256v0.376h0.26c0.058 0.003 0.116-0.013 0.164-0.047zM2.128 8.967l-0.319-0.534h-0.12v0.534h-0.274v-1.366h0.518c0.011-0.001 0.023-0.001 0.036-0.001 0.124 0 0.238 0.044 0.326 0.118l-0.001-0.001c0.077 0.079 0.124 0.186 0.124 0.305 0 0.098-0.032 0.188-0.087 0.261l0.001-0.001c-0.064 0.074-0.151 0.123-0.247 0.139l0.339 0.546h-0.298zM1.689 8.246h0.224c0.156 0 0.233-0.069 0.233-0.207 0-0.003 0-0.008 0-0.012 0-0.055-0.022-0.105-0.058-0.142l0 0c-0.042-0.035-0.096-0.056-0.155-0.056-0.007 0-0.015 0-0.022 0.001l0.001-0h-0.227l0.003 0.416zM3.625 8.692h-0.546l-0.096 0.275h-0.287l0.501-1.351h0.31l0.499 1.351h-0.287l-0.094-0.275zM3.552 8.485l-0.199-0.577-0.199 0.577h0.399zM5.499 8.967h-0.272l-0.61-0.929v0.929h-0.271v-1.366h0.271l0.61 0.934v-0.934h0.272v1.366zM7.051 8.64c-0.057 0.103-0.141 0.186-0.243 0.24l-0.003 0.002c-0.105 0.054-0.229 0.086-0.361 0.086-0.008 0-0.015-0-0.022-0l0.001 0h-0.484v-1.366h0.484c0.006-0 0.014-0 0.021-0 0.132 0 0.256 0.031 0.366 0.087l-0.005-0.002c0.104 0.052 0.19 0.136 0.246 0.238 0.054 0.104 0.085 0.228 0.085 0.358s-0.031 0.254-0.087 0.363l0.002-0.005zM6.739 8.607c0.075-0.087 0.12-0.201 0.12-0.326s-0.046-0.239-0.121-0.327l0.001 0.001c-0.083-0.073-0.192-0.117-0.311-0.117-0.010 0-0.021 0-0.031 0.001l0.001-0h-0.189v0.884h0.189c0.009 0.001 0.019 0.001 0.029 0.001 0.119 0 0.228-0.044 0.311-0.117l-0.001 0zM3.795 0s3.51 1.33 3.436 3.255v3.256s-3.507-1.331-3.434-3.256l-0.002-3.255zM10.357 5.749c0.628-0.439 1.387-0.735 2.209-0.823l0.021-0.002v-1.019c-0.938 0.37-1.704 1.011-2.219 1.826l-0.011 0.019z"></path>
<path fill="#afb1b8" style="fill: var(--color4, #afb1b8)" d="M9.958 6.056c0.548-1.093 1.471-1.93 2.595-2.354l0.033-0.011v-2.937s-4.998 1.895-4.893 4.636v4.636s0.223-0.085 0.573-0.244c0-0.148 0-0.298 0.016-0.448 0.11-1.318 0.734-2.471 1.669-3.273l0.007-0.005z"></path>
<path fill="#afb1b8" style="fill: var(--color4, #afb1b8)" d="M9.483 7.779c0.026-0.322 0.085-0.64 0.175-0.949-0.639 0.752-1.035 1.728-1.058 2.795l-0 0.005c0.407-0.196 0.722-0.365 1.030-0.546l-0.068 0.037c-0.060-0.285-0.094-0.612-0.094-0.947 0-0.139 0.006-0.277 0.018-0.414l-0.001 0.018zM9.682 7.795c-0.010 0.113-0.015 0.244-0.015 0.376 0 0.297 0.028 0.587 0.082 0.869l-0.005-0.029c1.366-0.82 2.9-2.088 2.841-3.62v-0.134c-1.017 0.118-1.914 0.56-2.6 1.22l0.001-0.001c-0.157 0.387-0.265 0.835-0.303 1.303l-0.001 0.016z"></path>
</symbol>
<symbol id="logo-one" viewBox="0 0 64 32">
<path fill="#afb1b8" style="fill: var(--color4, #afb1b8)" d="M1.28 0l1.559 1.476h4.349v4.117l1.559 1.476v-7.069h-7.467z"></path>
<path fill="#afb1b8" style="fill: var(--color4, #afb1b8)" d="M0 1.414v6.867h7.253v-2.729l-4.368-4.136-2.885-0.002zM5.872 7.276h-4.724v-4.618h0.334v4.306h4.39v0.313zM2.089 9.554l0.175-0.359h0.146l-0.255 0.479v0.279h-0.132v-0.279l-0.254-0.479h0.146l0.175 0.359zM2.838 9.776h-0.294l-0.061 0.177h-0.137l0.286-0.758h0.118l0.287 0.758h-0.138l-0.062-0.177zM2.581 9.67h0.22l-0.11-0.315-0.11 0.315zM3.357 9.748c0-0.035 0.010-0.067 0.029-0.096s0.057-0.064 0.113-0.105c-0.023-0.028-0.044-0.059-0.061-0.092l-0.001-0.003c-0.010-0.022-0.017-0.048-0.017-0.075v-0c0-0.060 0.018-0.106 0.054-0.141s0.085-0.052 0.146-0.052c0.055 0 0.1 0.016 0.135 0.049s0.053 0.073 0.053 0.12c0 0 0 0.001 0 0.001 0 0.032-0.009 0.062-0.025 0.087l0-0.001c-0.021 0.032-0.047 0.058-0.078 0.079l-0.001 0.001-0.052 0.038 0.147 0.173c0.021-0.042 0.032-0.088 0.032-0.139h0.11c0 0.093-0.022 0.17-0.066 0.23l0.111 0.132h-0.147l-0.043-0.051c-0.051 0.038-0.116 0.061-0.186 0.061-0.003 0-0.006-0-0.008-0h0c-0.075 0-0.135-0.020-0.18-0.060-0.041-0.037-0.067-0.090-0.067-0.149 0-0.002 0-0.005 0-0.007v0zM3.608 9.862c0.043 0 0.083-0.014 0.12-0.043l-0.166-0.195-0.016 0.012c-0.042 0.032-0.063 0.068-0.063 0.108 0 0.035 0.011 0.064 0.034 0.085 0.022 0.020 0.052 0.033 0.085 0.033 0.002 0 0.004-0 0.006-0h-0zM3.538 9.374c0 0.029 0.018 0.066 0.054 0.11l0.058-0.039 0.016-0.013c0.020-0.017 0.032-0.043 0.032-0.071 0-0.001 0-0.002-0-0.003v0c0-0 0-0 0-0.001 0-0.020-0.009-0.037-0.022-0.050l-0-0c-0.014-0.013-0.033-0.021-0.054-0.021-0.001 0-0.002 0-0.003 0h0c-0.001-0-0.002-0-0.003-0-0.022 0-0.042 0.010-0.056 0.025l-0 0c-0.014 0.016-0.022 0.037-0.022 0.060 0 0.001 0 0.002 0 0.003v-0zM4.916 9.706c-0.008 0.081-0.038 0.144-0.090 0.189s-0.121 0.068-0.208 0.068c-0.060 0-0.114-0.014-0.16-0.043-0.046-0.030-0.083-0.071-0.106-0.121l-0.001-0.002c-0.025-0.053-0.039-0.116-0.039-0.181 0-0.001 0-0.002 0-0.003v0-0.071c0-0.071 0.013-0.134 0.038-0.189s0.062-0.097 0.109-0.126c0.045-0.028 0.1-0.044 0.159-0.044 0.002 0 0.004 0 0.006 0h-0c0.084 0 0.151 0.023 0.202 0.068s0.081 0.11 0.089 0.193h-0.131c-0.006-0.054-0.022-0.094-0.048-0.118s-0.063-0.036-0.112-0.036c-0.057 0-0.101 0.021-0.132 0.063s-0.046 0.103-0.047 0.184v0.067c0 0.082 0.015 0.144 0.044 0.188s0.073 0.065 0.129 0.065c0.052 0 0.091-0.012 0.117-0.035s0.043-0.062 0.050-0.116h0.131zM5.639 9.593c0 0.074-0.013 0.14-0.038 0.196-0.024 0.054-0.062 0.098-0.109 0.129l-0.001 0.001c-0.048 0.030-0.102 0.045-0.165 0.045s-0.116-0.015-0.164-0.045c-0.049-0.031-0.087-0.075-0.111-0.127l-0.001-0.002c-0.025-0.054-0.040-0.118-0.040-0.185 0-0.002 0-0.005 0-0.008v0-0.043c0-0.074 0.013-0.139 0.039-0.196s0.063-0.1 0.111-0.13c0.048-0.030 0.103-0.045 0.164-0.045s0.117 0.015 0.164 0.045c0.048 0.030 0.085 0.072 0.111 0.128s0.039 0.121 0.039 0.195v0.042zM5.507 9.554c0-0.084-0.016-0.148-0.048-0.193-0.028-0.041-0.075-0.067-0.128-0.067-0.002 0-0.005 0-0.007 0h0c-0.002-0-0.004-0-0.005-0-0.053 0-0.1 0.026-0.128 0.067l-0 0.001c-0.032 0.044-0.048 0.108-0.049 0.189v0.044c0 0.083 0.016 0.148 0.049 0.193s0.078 0.068 0.135 0.068c0.058 0 0.103-0.022 0.134-0.067s0.047-0.109 0.047-0.195v-0.039z"></path>
</symbol>
<symbol id="logo-six" viewBox="0 0 64 32">
<path fill="#afb1b8" style="fill: var(--color4, #afb1b8)" d="M9.545 4.555c-0.077-0.11-0.123-0.247-0.123-0.395 0-0.016 0.001-0.031 0.002-0.046l-0 0.002v-0.636c0-0.195 0.041-0.343 0.121-0.445s0.219-0.152 0.416-0.151c0.185 0 0.316 0.043 0.393 0.13 0.084 0.11 0.126 0.245 0.116 0.381v0.149h-0.33v-0.151c0-0.006 0-0.013 0-0.020 0-0.045-0.004-0.090-0.010-0.133l0.001 0.005c-0.005-0.035-0.022-0.066-0.047-0.088l-0-0c-0.029-0.022-0.066-0.035-0.106-0.035-0.005 0-0.010 0-0.015 0.001l0.001-0c-0.004-0-0.009-0.001-0.014-0.001-0.042 0-0.081 0.014-0.113 0.037l0.001-0c-0.028 0.025-0.047 0.058-0.054 0.096l-0 0.001c-0.010 0.052-0.014 0.105-0.013 0.157v0.772c-0.001 0.009-0.001 0.019-0.001 0.030 0 0.068 0.016 0.133 0.044 0.19l-0.001-0.002c0.017 0.023 0.039 0.041 0.065 0.052l0.001 0c0.019 0.008 0.042 0.013 0.065 0.013 0.007 0 0.014-0 0.021-0.001l-0.001 0c0.004 0 0.009 0.001 0.014 0.001 0.039 0 0.075-0.013 0.104-0.036l-0 0c0.026-0.024 0.044-0.057 0.049-0.093l0-0.001c0.008-0.051 0.011-0.103 0.010-0.155v-0.157h0.33v0.143c0.001 0.012 0.001 0.025 0.001 0.039 0 0.135-0.043 0.261-0.117 0.363l0.001-0.002c-0.076 0.095-0.205 0.142-0.395 0.142s-0.334-0.050-0.415-0.155zM10.92 4.562c-0.083-0.099-0.125-0.243-0.125-0.434v-0.669c0-0.189 0.042-0.332 0.125-0.429s0.223-0.146 0.418-0.145c0.194 0 0.333 0.048 0.416 0.145s0.126 0.24 0.126 0.429v0.669c0 0.189-0.043 0.334-0.127 0.434s-0.223 0.149-0.415 0.149c-0.192 0-0.334-0.050-0.418-0.149zM11.492 4.401c0.030-0.062 0.044-0.13 0.040-0.198v-0.819c0-0.007 0.001-0.014 0.001-0.022 0-0.063-0.015-0.122-0.041-0.174l0.001 0.002c-0.017-0.023-0.040-0.042-0.066-0.053l-0.001-0c-0.019-0.008-0.041-0.013-0.065-0.013-0.008 0-0.016 0.001-0.023 0.002l0.001-0c-0.007-0.001-0.014-0.002-0.022-0.002-0.024 0-0.046 0.005-0.066 0.013l0.001-0c-0.028 0.012-0.050 0.030-0.067 0.053l-0 0c-0.025 0.050-0.040 0.109-0.040 0.171 0 0.008 0 0.016 0.001 0.024l-0-0.001v0.823c-0.004 0.068 0.009 0.136 0.040 0.198 0.019 0.021 0.042 0.037 0.068 0.049l0.001 0c0.025 0.011 0.054 0.017 0.085 0.017s0.060-0.006 0.086-0.018l-0.001 0.001c0.027-0.012 0.050-0.028 0.069-0.049l0-0v-0.004zM12.277 2.903h0.356l0.267 1.235 0.274-1.235h0.346l0.035 1.783h-0.255l-0.027-1.239-0.264 1.239h-0.205l-0.274-1.243-0.025 1.243h-0.259l0.032-1.782zM13.953 2.903h0.554c0.319 0 0.479 0.169 0.479 0.506 0 0.323-0.168 0.484-0.504 0.484h-0.188v0.792h-0.342l0.002-1.782zM14.426 3.665c0.034 0.004 0.068 0.001 0.1-0.009s0.063-0.026 0.088-0.048c0.039-0.060 0.057-0.131 0.049-0.201 0-0.006 0-0.013 0-0.021 0-0.050-0.006-0.099-0.017-0.145l0.001 0.004c-0.005-0.019-0.014-0.035-0.025-0.049l0 0c-0.012-0.015-0.026-0.027-0.043-0.035l-0.001-0c-0.039-0.018-0.086-0.029-0.134-0.029-0.006 0-0.013 0-0.019 0.001l0.001-0h-0.133v0.532h0.133zM15.479 2.903h0.367l0.377 1.783h-0.319l-0.074-0.411h-0.327l-0.077 0.411h-0.323l0.377-1.782zM15.792 4.069l-0.128-0.748-0.128 0.748h0.256zM16.527 2.903h0.239l0.458 1.017v-1.017h0.284v1.782h-0.228l-0.461-1.062v1.062h-0.293l0.001-1.782zM18.172 4.006l-0.381-1.1h0.321l0.233 0.707 0.218-0.707h0.314l-0.376 1.1v0.68h-0.328v-0.68zM10.073 5.465v0.093h-0.279v0.724h-0.117v-0.724h-0.28v-0.093h0.676zM10.947 6.283h-0.090c-0.001 0-0.002 0-0.003 0-0.009 0-0.017-0.003-0.023-0.008l0 0c-0.007-0.005-0.012-0.011-0.015-0.019l-0-0-0.081-0.194h-0.387l-0.081 0.194c-0.002 0.009-0.007 0.016-0.012 0.022l0-0c-0.006 0.005-0.015 0.008-0.023 0.008-0.001 0-0.001-0-0.002-0h-0.090l0.342-0.817h0.119l0.346 0.814zM10.381 5.979h0.323l-0.137-0.333c-0.009-0.021-0.017-0.046-0.024-0.072l-0.001-0.004-0.013 0.043-0.012 0.034-0.135 0.332zM11.536 6.203c0.021 0.001 0.043 0.001 0.064 0 0.019-0.002 0.037-0.005 0.055-0.010 0.019-0.005 0.036-0.010 0.052-0.016l-0.003 0.001c0.015-0.006 0.030-0.013 0.046-0.020v-0.184h-0.137c-0 0-0.001 0-0.002 0-0.007 0-0.012-0.002-0.017-0.006l0 0c-0.004-0.003-0.007-0.008-0.007-0.014 0-0 0-0.001 0-0.001v0-0.063h0.265v0.313c-0.041 0.028-0.089 0.051-0.141 0.066l-0.004 0.001c-0.024 0.007-0.053 0.013-0.083 0.017l-0.003 0c-0.030 0.003-0.064 0.005-0.099 0.005-0 0-0.001 0-0.001 0h0c-0.001 0-0.002 0-0.004 0-0.061 0-0.118-0.011-0.172-0.032l0.003 0.001c-0.053-0.020-0.098-0.049-0.137-0.086l0 0c-0.037-0.036-0.067-0.079-0.087-0.127l-0.001-0.003c-0.020-0.049-0.032-0.105-0.032-0.164 0-0.002 0-0.004 0-0.006v0c-0-0.002-0-0.003-0-0.005 0-0.060 0.011-0.117 0.032-0.169l-0.001 0.003c0.020-0.048 0.050-0.092 0.088-0.129s0.086-0.066 0.137-0.085c0.058-0.021 0.121-0.031 0.183-0.030 0.032 0 0.064 0.002 0.095 0.007 0.028 0.004 0.055 0.011 0.082 0.021 0.024 0.009 0.047 0.019 0.068 0.032s0.041 0.027 0.060 0.043l-0.033 0.051c-0.003 0.005-0.006 0.008-0.011 0.011l-0 0c-0.004 0.003-0.010 0.004-0.016 0.004h-0c-0.008-0-0.015-0.003-0.021-0.006l0 0c-0.013-0.007-0.024-0.013-0.035-0.020l0.002 0.001c-0.013-0.008-0.028-0.015-0.044-0.021l-0.002-0.001c-0.018-0.007-0.039-0.013-0.060-0.018l-0.003-0c-0.025-0.005-0.053-0.007-0.082-0.007-0.002 0-0.003 0-0.005 0h0c-0.001 0-0.003-0-0.004-0-0.046 0-0.090 0.008-0.13 0.023l0.003-0.001c-0.038 0.014-0.073 0.036-0.1 0.065-0.028 0.029-0.050 0.064-0.064 0.102-0.014 0.041-0.023 0.087-0.023 0.136s0.008 0.096 0.024 0.139l-0.001-0.003c0.015 0.038 0.038 0.074 0.068 0.103 0.028 0.028 0.062 0.050 0.1 0.065 0.044 0.014 0.090 0.020 0.135 0.016zM12.626 6.19h0.373v0.093h-0.487v-0.817h0.117l-0.003 0.724zM13.388 6.283h-0.117v-0.817h0.117v0.817zM13.823 5.469c0.007 0.004 0.013 0.009 0.018 0.015l0 0 0.5 0.616c-0-0.004-0.001-0.009-0.001-0.015s0-0.010 0.001-0.015l-0 0.001v-0.609h0.102v0.821h-0.059c-0.001 0-0.003 0-0.004 0-0.008 0-0.015-0.002-0.022-0.005l0 0c-0.007-0.004-0.013-0.009-0.018-0.015l-0-0-0.499-0.615v0.636h-0.098v-0.817h0.061c0 0 0 0 0 0 0.007 0 0.013 0.001 0.019 0.004l-0-0zM15.303 5.465v0.090h-0.414v0.27h0.336v0.087h-0.336v0.279h0.414v0.090h-0.535v-0.816h0.535zM3.051 0.417l5.191 1.395v4.89l-5.191-1.395v-4.891zM2.719 0v5.545l5.857 1.575v-5.545l-5.857-1.575z"></path>
<path fill="#afb1b8" style="fill: var(--color4, #afb1b8)" d="M5.857 9.694l-5.857-1.576v-5.545l5.857 1.575v5.545z"></path>
<path fill="#afb1b8" style="fill: var(--color4, #afb1b8)" d="M2.816 0.354l5.124 1.378-2.179 2.063-5.124-1.379 2.18-2.063zM2.719 0l-2.719 2.573 5.857 1.575 2.718-2.573-5.857-1.575zM6.187 9.382l2.388-2.261-2.388-0.643v2.904z"></path>
</symbol>
<symbol id="logo-three" viewBox="0 0 64 32">
<path fill="#afb1b8" style="fill: var(--color4, #afb1b8)" d="M1.354 8.916c0.007 0 0.013 0.003 0.017 0.007v0l0.044 0.046c-0.034 0.037-0.076 0.067-0.124 0.087-0.048 0.020-0.105 0.031-0.164 0.031-0.004 0-0.008-0-0.012-0h0.001c-0.003 0-0.006 0-0.009 0-0.056 0-0.11-0.011-0.159-0.030l0.003 0.001c-0.095-0.038-0.169-0.114-0.203-0.208l-0.001-0.002c-0.018-0.047-0.028-0.101-0.028-0.158 0-0.002 0-0.004 0-0.006v0c-0-0.002-0-0.004-0-0.007 0-0.057 0.011-0.111 0.031-0.161l-0.001 0.003c0.019-0.047 0.048-0.091 0.085-0.127s0.082-0.064 0.132-0.083c0.054-0.020 0.112-0.030 0.169-0.029 0.054-0.001 0.108 0.008 0.158 0.027 0.043 0.018 0.083 0.043 0.118 0.074l-0.037 0.049c-0.003 0.004-0.006 0.007-0.009 0.009l-0 0c-0.004 0.002-0.008 0.004-0.013 0.004-0.001 0-0.001-0-0.002-0h0c-0.006-0-0.011-0.002-0.016-0.005l0 0-0.020-0.013-0.028-0.017c-0.025-0.013-0.054-0.023-0.085-0.029l-0.002-0c-0.018-0.003-0.039-0.005-0.060-0.005-0.002 0-0.004 0-0.006 0h0c-0.001-0-0.003-0-0.004-0-0.042 0-0.083 0.008-0.12 0.023l0.002-0.001c-0.037 0.015-0.069 0.036-0.096 0.062v0c-0.027 0.028-0.048 0.062-0.062 0.098s-0.023 0.080-0.023 0.125c0 0.002 0 0.003 0 0.005v-0c-0.001 0.045 0.007 0.090 0.023 0.132 0.013 0.036 0.034 0.069 0.061 0.098 0.025 0.027 0.056 0.047 0.091 0.061 0.036 0.014 0.074 0.021 0.113 0.021 0.022 0 0.045-0.001 0.067-0.004 0.036-0.004 0.071-0.016 0.102-0.035 0.015-0.010 0.030-0.020 0.043-0.032 0.005-0.005 0.013-0.008 0.021-0.009h0zM2.621 8.685c0.001 0.055-0.009 0.111-0.030 0.163-0.019 0.049-0.047 0.091-0.083 0.126l-0 0c-0.036 0.035-0.079 0.063-0.127 0.082l-0.003 0.001c-0.050 0.019-0.107 0.029-0.167 0.029s-0.117-0.011-0.17-0.030l0.003 0.001c-0.050-0.020-0.093-0.048-0.129-0.083l0 0c-0.035-0.035-0.064-0.078-0.083-0.125l-0.001-0.002c-0.019-0.048-0.030-0.104-0.030-0.163s0.011-0.114 0.031-0.166l-0.001 0.003c0.020-0.050 0.048-0.092 0.083-0.128l-0 0c0.036-0.034 0.079-0.061 0.126-0.079l0.003-0.001c0.050-0.019 0.107-0.030 0.167-0.030s0.117 0.011 0.17 0.031l-0.003-0.001c0.049 0.019 0.093 0.047 0.13 0.083s0.064 0.079 0.083 0.126c0.020 0.052 0.030 0.108 0.030 0.164zM2.506 8.685c0-0.002 0-0.004 0-0.007 0-0.044-0.008-0.087-0.022-0.126l0.001 0.003c-0.025-0.073-0.080-0.131-0.15-0.159l-0.002-0.001c-0.036-0.014-0.078-0.021-0.121-0.021s-0.085 0.008-0.124 0.022l0.002-0.001c-0.072 0.028-0.127 0.086-0.151 0.158l-0.001 0.002c-0.028 0.085-0.028 0.176 0 0.262 0.025 0.073 0.080 0.131 0.15 0.158l0.002 0.001c0.078 0.028 0.164 0.028 0.243 0 0.036-0.014 0.067-0.035 0.093-0.061l0-0c0.026-0.029 0.046-0.062 0.059-0.098 0.015-0.042 0.022-0.086 0.021-0.131zM3.486 8.822l0.012 0.029c0.005-0.013 0.010-0.023 0.014-0.033l-0.001 0.003c0.005-0.012 0.010-0.021 0.015-0.030l-0.001 0.001 0.28-0.486c0.006-0.009 0.011-0.014 0.016-0.015s0.012-0.003 0.019-0.003c0.001 0 0.003 0 0.004 0h0.083v0.79h-0.098v-0.605c-0-0.004-0-0.009-0-0.014s0-0.010 0-0.014l-0 0.001-0.282 0.493c-0.004 0.008-0.009 0.014-0.016 0.018l-0 0c-0.007 0.004-0.015 0.006-0.023 0.006-0 0-0 0-0.001 0h-0.016c-0 0-0.001 0-0.001 0-0.009 0-0.017-0.002-0.023-0.007l0 0c-0.007-0.004-0.013-0.010-0.016-0.018l-0-0-0.29-0.496v0.634h-0.095v-0.788h0.083c0.001-0 0.003-0 0.004-0 0.007 0 0.013 0.001 0.019 0.003l-0.001-0c0.007 0.003 0.012 0.008 0.015 0.015l0 0 0.286 0.486c0.005 0.008 0.010 0.017 0.014 0.027l0 0.001zM4.541 8.783v0.296h-0.11v-0.788h0.245c0.003-0 0.006-0 0.009-0 0.045 0 0.089 0.006 0.131 0.018l-0.003-0.001c0.036 0.010 0.068 0.026 0.097 0.049 0.024 0.021 0.043 0.048 0.055 0.077 0.013 0.032 0.019 0.067 0.019 0.101s-0.006 0.069-0.020 0.101c-0.014 0.031-0.034 0.058-0.059 0.079l-0 0c-0.027 0.023-0.060 0.041-0.095 0.052l-0.002 0.001c-0.043 0.013-0.087 0.019-0.132 0.018l-0.133-0.002zM4.541 8.698h0.133c0.029 0 0.058-0.004 0.085-0.012 0.024-0.008 0.044-0.019 0.062-0.034l-0 0c0.016-0.014 0.029-0.031 0.037-0.051l0-0.001c0.008-0.019 0.013-0.041 0.013-0.065 0-0.001 0-0.001 0-0.002v0c0-0.002 0-0.005 0-0.008 0-0.020-0.004-0.040-0.012-0.057l0 0.001c-0.009-0.021-0.022-0.039-0.038-0.054l-0-0c-0.036-0.027-0.082-0.043-0.131-0.043-0.006 0-0.012 0-0.017 0.001l0.001-0h-0.133v0.325zM6.016 9.080h-0.087c-0.001 0-0.001 0-0.002 0-0.008 0-0.016-0.003-0.023-0.007l0 0c-0.006-0.005-0.011-0.011-0.014-0.018l-0-0-0.075-0.191h-0.375l-0.077 0.191c-0.003 0.007-0.008 0.013-0.014 0.018l-0 0c-0.006 0.005-0.015 0.008-0.023 0.008-0 0-0.001 0-0.001-0h-0.087l0.329-0.79h0.114l0.334 0.79zM5.473 8.786h0.309l-0.131-0.322c-0.009-0.020-0.017-0.045-0.024-0.070l-0.001-0.004-0.013 0.041c-0.004 0.014-0.008 0.025-0.013 0.036l0.001-0.003-0.13 0.321zM6.49 8.293c0.007 0.004 0.012 0.009 0.017 0.014l0.48 0.595v-0.613h0.098v0.79h-0.055c-0 0-0.001 0-0.001 0-0.008 0-0.015-0.002-0.021-0.005l0 0c-0.007-0.004-0.013-0.009-0.017-0.015l-0-0-0.48-0.595c0 0.004 0 0.009 0 0.014s-0 0.009-0.001 0.014l0-0.001v0.587h-0.098v-0.79h0.058c0.007 0 0.013 0.001 0.020 0.004zM7.894 8.765v0.314h-0.11v-0.314l-0.303-0.476h0.098c0.001-0 0.001-0 0.002-0 0.008 0 0.016 0.003 0.022 0.007l-0-0c0.006 0.005 0.011 0.011 0.015 0.018l0 0 0.19 0.307c0.007 0.013 0.014 0.025 0.020 0.037s0.010 0.022 0.014 0.033l0.014-0.034c0.006-0.014 0.012-0.026 0.019-0.037l-0.001 0.001 0.187-0.309c0.004-0.006 0.009-0.012 0.014-0.017l0-0c0.006-0.005 0.013-0.008 0.022-0.008 0.001 0 0.001 0 0.002 0h0.099l-0.304 0.478zM3.432 6.964c0.048 0.006 0.096 0.011 0.145 0.015 0.74-0.316 1.367-0.832 1.801-1.485 0.401-0.592 0.64-1.323 0.64-2.109 0-0.027-0-0.054-0.001-0.081l0 0.004-0.816-0.777c0.054 0.256 0.085 0.551 0.085 0.852 0 0.578-0.114 1.129-0.319 1.632l0.010-0.029c-0.313 0.783-0.848 1.468-1.545 1.978z"></path>
<path fill="#afb1b8" style="fill: var(--color4, #afb1b8)" d="M3.14 6.928l0.022 0.004c0.745-0.508 1.314-1.218 1.632-2.036 0.18-0.448 0.284-0.968 0.284-1.512 0-0.372-0.049-0.732-0.14-1.075l0.007 0.029-1.162-1.107c0.364 0.687 0.577 1.502 0.577 2.366 0 0.201-0.012 0.399-0.034 0.594l0.002-0.024c-0.114 1.009-0.526 1.966-1.188 2.76zM7.082 4.221c-0.197 0.849-0.677 1.614-1.367 2.183-0.191 0.159-0.403 0.306-0.628 0.433l-0.021 0.011c0.585-0.166 1.091-0.446 1.515-0.817l-0.005 0.004c0.42-0.367 0.753-0.824 0.969-1.341l0.009-0.024-0.471-0.449z"></path>
<path fill="#afb1b8" style="fill: var(--color4, #afb1b8)" d="M6.897 4.096l-0.671-0.639c-0.015 0.769-0.248 1.48-0.639 2.078l0.009-0.015c-0.4 0.622-0.967 1.13-1.642 1.473h0.003c0.151 0 0.301-0.009 0.451-0.026 0.645-0.253 1.19-0.641 1.619-1.132l0.004-0.005c0.417-0.476 0.72-1.062 0.861-1.708l0.005-0.026zM3.238 0.764l-0.801-0.764c-0.716 0.263-1.331 0.727-1.766 1.329s-0.669 1.316-0.671 2.046c0.003 0.808 0.288 1.591 0.811 2.227s1.253 1.087 2.076 1.283c0.734-0.852 1.164-1.905 1.227-3.006s-0.244-2.192-0.877-3.116zM8.747 3.978c-0.003-0.958-0.404-1.877-1.115-2.554s-1.675-1.060-2.681-1.062c-0.002 0-0.004 0-0.006 0-0.486 0-0.951 0.088-1.381 0.25l0.027-0.009 4.902 4.67c0.16-0.383 0.253-0.827 0.253-1.294 0-0 0-0 0-0v0z"></path>
</symbol>
<symbol id="logo-two" viewBox="0 0 64 32">
<path fill="#afb1b8" style="fill: var(--color4, #afb1b8)" d="M3.622 0.626h0.029c0.054 0 0.112 0.005 0.17 0.010 0.254 0.018 0.507 0.056 0.756 0.114v-0.611c-0.226-0.060-0.492-0.104-0.765-0.124l-0.015-0.001c-0.088-0.007-0.198-0.012-0.308-0.015l-0.007-0h-0.091c-0.528 0.002-1.054 0.070-1.565 0.202-0.63 0.16-1.183 0.391-1.69 0.692l0.029-0.016v6.058c0.455-0.253 0.982-0.464 1.536-0.607l0.047-0.010c0.389-0.104 0.844-0.177 1.31-0.203l0.018-0.001h0.018c0.067-0.004 0.146-0.006 0.226-0.006h0.001v-0.621c-0.617 0.008-1.211 0.091-1.778 0.241l0.051-0.011c-0.209 0.054-0.411 0.113-0.6 0.178l-0.216 0.073v-4.724l0.092-0.044c0.655-0.318 1.42-0.524 2.227-0.572l0.016-0.001c0.003-0 0.006-0 0.010-0s0.007 0 0.010 0l-0-0c0.086-0.004 0.172-0.006 0.257-0.006h0.097c0.045 0.001 0.090 0.002 0.134 0.005z"></path>
<path fill="#afb1b8" style="fill: var(--color4, #afb1b8)" d="M5.143 1.266c-0.002 0-0.004 0-0.005 0-0.317 0-0.628-0.027-0.93-0.078l0.033 0.005c-0.096-0.016-0.191-0.036-0.282-0.057v5.989c0.388 0.096 0.787 0.143 1.187 0.14 0.557-0.002 1.096-0.076 1.61-0.211l-0.045 0.010c0.63-0.16 1.183-0.391 1.691-0.692l-0.030 0.016v-5.95c-0.455 0.252-0.981 0.464-1.535 0.607l-0.047 0.010c-0.538 0.138-1.091 0.209-1.645 0.211zM7.538 1.369l0.216-0.073v4.725l-0.092 0.045c-0.313 0.153-0.68 0.289-1.063 0.388l-0.041 0.009c-0.461 0.119-0.936 0.181-1.412 0.183-0.143 0-0.284-0.006-0.421-0.018l-0.148-0.013v-4.859l0.172 0.012c0.114 0.008 0.247 0.012 0.381 0.012 0.005 0 0.010 0 0.015-0h-0.001c0.638-0.002 1.256-0.086 1.844-0.241l-0.051 0.011c0.27-0.070 0.47-0.132 0.667-0.2l-0.067 0.020zM0.584 9.005c-0.058-0.060-0.139-0.097-0.229-0.097-0.004 0-0.008 0-0.012 0l0.001-0c-0.001-0-0.003-0-0.005-0-0.048 0-0.094 0.010-0.136 0.027l0.002-0.001c-0.082 0.033-0.146 0.097-0.177 0.178l-0.001 0.002c-0.017 0.043-0.025 0.088-0.025 0.134v0.809c-0.002 0.057 0.009 0.114 0.032 0.166 0.019 0.042 0.047 0.079 0.081 0.109 0.032 0.027 0.070 0.047 0.111 0.058 0.039 0.011 0.080 0.017 0.121 0.017 0.045 0 0.090-0.009 0.131-0.028 0.121-0.054 0.205-0.174 0.205-0.313v0-0.090h-0.212v0.072c0 0.001 0 0.003 0 0.005 0 0.024-0.005 0.047-0.013 0.069l0-0.001c-0.007 0.018-0.018 0.033-0.031 0.046l-0 0c-0.024 0.019-0.055 0.030-0.088 0.031h-0c-0.004 0-0.008 0.001-0.012 0.001-0.036 0-0.067-0.017-0.087-0.044l-0-0c-0.018-0.029-0.028-0.063-0.028-0.1 0-0.003 0-0.006 0-0.008v0-0.755c-0.001-0.042 0.008-0.083 0.026-0.121 0.020-0.030 0.053-0.050 0.091-0.050 0.004 0 0.009 0 0.013 0.001l-0.001-0c0.001-0 0.003-0 0.004-0 0.037 0 0.070 0.018 0.090 0.045l0 0c0.022 0.029 0.035 0.065 0.035 0.104 0 0.002-0 0.003-0 0.005v-0 0.070h0.209v-0.083c0-0.001 0-0.002 0-0.004 0-0.050-0.009-0.097-0.027-0.141l0.001 0.003c-0.017-0.044-0.041-0.082-0.071-0.114l0 0zM1.841 8.996c-0.065-0.055-0.149-0.088-0.24-0.089h-0c-0.043 0-0.086 0.008-0.126 0.023-0.087 0.031-0.156 0.096-0.193 0.177l-0.001 0.002c-0.021 0.049-0.032 0.103-0.031 0.157v0.776c-0.002 0.055 0.009 0.109 0.031 0.159 0.019 0.042 0.047 0.079 0.082 0.109 0.032 0.030 0.070 0.053 0.112 0.068s0.083 0.023 0.126 0.023c0.092-0 0.177-0.035 0.241-0.091l-0 0c0.034-0.030 0.061-0.067 0.080-0.109 0.022-0.050 0.032-0.104 0.031-0.159v-0.776c0-0.002 0-0.005 0-0.007 0-0.054-0.011-0.105-0.032-0.152l0.001 0.002c-0.020-0.044-0.047-0.082-0.080-0.113l-0-0zM1.742 10.042c0 0.004 0.001 0.008 0.001 0.012 0 0.039-0.016 0.075-0.042 0.1l-0 0c-0.027 0.023-0.062 0.036-0.1 0.036s-0.073-0.014-0.1-0.036l0 0c-0.026-0.025-0.043-0.061-0.043-0.1 0-0.004 0-0.009 0.001-0.013l-0 0.001v-0.776c-0-0.004-0-0.008-0-0.012 0-0.039 0.016-0.075 0.042-0.1l0-0c0.027-0.023 0.062-0.036 0.1-0.036s0.073 0.014 0.1 0.036l-0-0c0.026 0.025 0.043 0.061 0.043 0.1 0 0.004-0 0.009-0.001 0.013l0-0.001v0.777zM3.492 10.389v-1.47h-0.203l-0.267 0.778h-0.004l-0.269-0.778h-0.201v1.469h0.21v-0.894h0.004l0.205 0.632h0.105l0.207-0.632h0.004v0.894h0.21zM4.684 9.023c-0.032-0.036-0.073-0.064-0.119-0.080-0.043-0.015-0.093-0.023-0.144-0.023-0.003 0-0.006 0-0.008 0h-0.311v1.47h0.209v-0.574h0.108c0.005 0 0.011 0 0.017 0 0.063 0 0.122-0.015 0.174-0.041l-0.002 0.001c0.048-0.027 0.087-0.065 0.114-0.111l0.001-0.001c0.024-0.039 0.041-0.083 0.048-0.128s0.011-0.1 0.011-0.154c0-0.005-0-0.009-0-0.014v0.001c0.002-0.070-0.005-0.141-0.020-0.21-0.015-0.053-0.042-0.098-0.077-0.135l0 0zM4.576 9.471c-0.001 0.028-0.008 0.054-0.020 0.078l0-0.001c-0.012 0.023-0.031 0.040-0.053 0.051l-0.001 0c-0.026 0.012-0.056 0.019-0.088 0.019-0.004 0-0.008-0-0.011-0l0.001 0h-0.096v-0.5h0.108c0.003-0 0.006-0 0.010-0 0.031 0 0.060 0.007 0.086 0.019l-0.001-0.001c0.022 0.013 0.039 0.031 0.049 0.053l0 0.001c0.011 0.024 0.018 0.052 0.018 0.082v0.098c0 0.034 0.002 0.070 0 0.101h-0.002zM5.676 8.919h-0.172l-0.324 1.47h0.21l0.061-0.316h0.285l0.062 0.316h0.209l-0.332-1.47zM5.483 9.873l0.103-0.533h0.004l0.102 0.533h-0.209zM7.029 9.805h-0.004l-0.316-0.885h-0.201v1.47h0.21v-0.884h0.004l0.32 0.884h0.197v-1.469h-0.209v0.885zM8.309 8.919l-0.169 0.585h-0.004l-0.169-0.585h-0.221l0.288 0.849v0.621h0.209v-0.621l0.288-0.848h-0.222zM0 10.804h0.101v0.283h0.068v-0.283h0.1v-0.058h-0.27v0.058zM0.848 10.746l-0.132 0.341h0.073l0.028-0.078h0.136l0.029 0.078h0.075l-0.136-0.341h-0.073zM0.838 10.952l0.046-0.127 0.046 0.127h-0.093zM1.687 10.961h0.079v0.044c-0.022 0.018-0.050 0.029-0.081 0.029h-0c-0.001 0-0.003 0-0.005 0-0.027 0-0.052-0.013-0.067-0.033l-0-0c-0.016-0.023-0.025-0.051-0.025-0.081 0-0.003 0-0.005 0-0.008l-0 0c0-0.076 0.033-0.114 0.098-0.114 0.002-0 0.005-0 0.007-0 0.034 0 0.062 0.023 0.070 0.054l0 0.001 0.067-0.013c-0.014-0.067-0.063-0.1-0.145-0.1-0.001-0-0.003-0-0.005-0-0.044 0-0.084 0.017-0.115 0.044l0-0c-0.031 0.030-0.050 0.072-0.050 0.118 0 0.004 0 0.009 0.001 0.013l-0-0.001c-0 0.002-0 0.005-0 0.008 0 0.046 0.017 0.088 0.044 0.12l-0-0c0.030 0.031 0.072 0.050 0.119 0.050 0.004 0 0.007-0 0.011-0l-0 0c0.002 0 0.004 0 0.006 0 0.054 0 0.103-0.021 0.139-0.055l-0 0v-0.134h-0.148v0.058zM2.544 10.746h-0.069v0.341h0.239v-0.058h-0.17v-0.283zM3.268 10.746h-0.069v0.341h0.069v-0.341zM3.976 10.974l-0.14-0.228h-0.067v0.341h0.064v-0.223l0.137 0.223h0.069v-0.341h-0.063v0.228zM4.616 10.937h0.17v-0.058h-0.17v-0.075h0.183v-0.058h-0.252v0.341h0.259v-0.058h-0.19v-0.092zM6.168 10.881h-0.134v-0.134h-0.068v0.341h0.068v-0.149h0.134v0.149h0.069v-0.341h-0.069v0.135zM6.812 10.937h0.171v-0.058h-0.171v-0.075h0.183v-0.058h-0.252v0.341h0.259v-0.058h-0.19v-0.092zM7.685 10.937c0.060-0.009 0.090-0.041 0.090-0.095 0-0.003 0.001-0.006 0.001-0.010 0-0.027-0.013-0.051-0.034-0.066l-0-0c-0.025-0.013-0.055-0.021-0.087-0.021-0.005 0-0.009 0-0.014 0.001l0.001-0h-0.145v0.341h0.069v-0.143h0.013c0.002-0 0.004-0 0.005-0 0.013 0 0.026 0.003 0.038 0.008l-0.001-0c0.010 0.006 0.018 0.015 0.024 0.025l0 0 0.074 0.108h0.082l-0.042-0.067c-0.019-0.033-0.044-0.061-0.075-0.081l-0.001-0.001zM7.616 10.89h-0.051v-0.086h0.054c0.004-0 0.009-0.001 0.014-0.001 0.020 0 0.039 0.003 0.056 0.009l-0.001-0c0.009 0.008 0.015 0.020 0.015 0.033 0 0.015-0.007 0.028-0.018 0.036l-0 0c-0.017 0.005-0.037 0.009-0.057 0.009-0.005 0-0.009-0-0.013-0l0.001 0zM8.343 10.937h0.17v-0.058h-0.17v-0.075h0.183v-0.058h-0.252v0.341h0.259v-0.058h-0.19v-0.092z"></path>
</symbol>
<symbol id="smartphone" viewBox="0 0 64 32">
<path fill="#757575" style="fill: var(--color3, #757575)" d="M1.813 0h-1.493c-0.176 0-0.32 0.144-0.32 0.32v2.773c0 0.176 0.144 0.32 0.32 0.32h1.493c0.176 0 0.32-0.144 0.32-0.32v-2.773c0-0.176-0.144-0.32-0.32-0.32zM0.32 0.213h1.493c0.059 0 0.107 0.048 0.107 0.107v0 2.24h-1.707v-2.24c0-0.059 0.048-0.107 0.107-0.107v0zM1.813 3.2h-1.493c-0.059 0-0.107-0.048-0.107-0.107v0-0.32h1.707v0.32c0 0.059-0.048 0.107-0.107 0.107v0z"></path>
<path fill="#757575" style="fill: var(--color3, #757575)" d="M0.502 2.931c0.019 0.017 0.031 0.042 0.031 0.070s-0.012 0.053-0.031 0.070l-0 0c-0.020 0.018-0.046 0.029-0.076 0.029s-0.056-0.011-0.076-0.029l0 0c-0.019-0.017-0.031-0.042-0.031-0.070s0.012-0.053 0.031-0.070l0-0c0.020-0.018 0.046-0.029 0.076-0.029s0.056 0.011 0.076 0.029l-0-0z"></path>
</symbol>
<symbol id="twitter" viewBox="0 0 64 32">
<path fill="#afb1b8" style="fill: var(--color4, #afb1b8)" d="M4.267 0.81c-0.147 0.066-0.317 0.114-0.495 0.137l-0.009 0.001c0.181-0.109 0.318-0.277 0.383-0.477l0.002-0.006c-0.16 0.096-0.345 0.17-0.543 0.21l-0.011 0.002c-0.16-0.171-0.387-0.277-0.638-0.277-0.483 0-0.874 0.392-0.874 0.874 0 0 0 0 0 0v-0c0 0.069 0.006 0.136 0.020 0.199-0.727-0.035-1.371-0.384-1.803-0.915-0.075 0.127-0.12 0.279-0.12 0.442v0c0 0.303 0.156 0.572 0.388 0.727-0.145-0.004-0.281-0.043-0.399-0.11l0.004 0.002v0.010c0 0.422 0.298 0.774 0.695 0.859l0.006 0.001c-0.067 0.018-0.143 0.029-0.222 0.029-0.003 0-0.005 0-0.008-0h0c-0.056 0-0.112-0.003-0.166-0.015 0.113 0.346 0.435 0.601 0.817 0.609-0.295 0.233-0.673 0.373-1.083 0.373-0.001 0-0.001 0-0.002 0h0c-0.002 0-0.005 0-0.008 0-0.071 0-0.141-0.005-0.209-0.013l0.008 0.001c0.377 0.246 0.838 0.393 1.334 0.393 0.003 0 0.006 0 0.008 0h-0c1.61 0 2.49-1.333 2.49-2.489 0-0.038-0.001-0.076-0.003-0.113 0.173-0.125 0.319-0.275 0.434-0.447l0.004-0.006z"></path>
</symbol>
<symbol id="Vector" viewBox="0 0 64 32">
<path d="M0.746 11.496h11.94c0 0 0 0 0 0 0.412 0 0.746-0.334 0.746-0.746v0-0.995c0-0.412-0.334-0.746-0.746-0.746v0h-0.249v-6.204l1.413-1.338c0.097 0.049 0.211 0.077 0.332 0.077 0.415 0 0.751-0.336 0.751-0.75s-0.336-0.75-0.751-0.75c-0.415 0-0.751 0.336-0.751 0.75 0 0.115 0.026 0.224 0.072 0.322l-0.002-0.005-1.065 1.009v-0.574c0-0.412-0.334-0.746-0.746-0.746v0h-9.95c-0.412 0-0.746 0.334-0.746 0.746v7.463h-0.249c-0.412 0-0.746 0.334-0.746 0.746v0 0.995c0 0.412 0.334 0.746 0.746 0.746v0zM14.179 0.55c0.137 0 0.249 0.111 0.249 0.249s-0.111 0.249-0.249 0.249v0c-0.137 0-0.249-0.111-0.249-0.249s0.111-0.249 0.249-0.249v0zM1.492 1.545c0-0.137 0.111-0.249 0.249-0.249h9.95c0.137 0 0.249 0.111 0.249 0.249v1.045l-0.498 0.473v-1.020c0-0.138-0.112-0.249-0.249-0.249h-8.955c-0.137 0-0.249 0.111-0.249 0.249v6.219c0 0.137 0.112 0.249 0.249 0.249h8.955c0.138 0 0.249-0.111 0.249-0.249v-4.515l0.498-0.471v5.732h-10.448v-7.462zM3.731 4.779c-0.001 0-0.001 0-0.002 0-0.412 0-0.746 0.334-0.746 0.746s0.334 0.746 0.746 0.746c0.202 0 0.385-0.080 0.519-0.21l-0 0 0.865 0.434c0.032 0.016 0.071 0.026 0.111 0.026 0.074 0 0.14-0.032 0.186-0.083l0-0 1.838-2.068 1.807 1.354c0.097 0.073 0.232 0.065 0.32-0.018l1.57-1.488v3.795h-8.458v-5.722h8.458v1.242l-1.76 1.667-1.822-1.366c-0.041-0.031-0.093-0.050-0.149-0.050-0.074 0-0.14 0.032-0.186 0.083l-0 0-1.863 2.097-0.697-0.348c0.005-0.030 0.008-0.060 0.009-0.090 0-0.412-0.334-0.746-0.746-0.746v0zM3.98 5.526c0 0.137-0.111 0.249-0.249 0.249s-0.249-0.111-0.249-0.249v0c0-0.137 0.111-0.249 0.249-0.249s0.249 0.111 0.249 0.249v0zM5.473 9.506h2.487v0.249c0 0.137-0.111 0.249-0.249 0.249h-1.99c-0.137 0-0.249-0.111-0.249-0.249v0-0.249zM0.498 9.754c0-0.137 0.111-0.249 0.249-0.249h4.229v0.249c0 0.412 0.334 0.746 0.746 0.746v0h1.99c0.412 0 0.746-0.334 0.746-0.746v0-0.249h4.229c0.137 0 0.249 0.111 0.249 0.249v0.995c0 0.137-0.111 0.249-0.249 0.249h-11.94c-0 0-0 0-0 0-0.137 0-0.249-0.111-0.249-0.249 0 0 0 0 0 0v0-0.995z"></path>
</symbol>
</defs>
</svg>
