<svg aria-hidden="true" style="position:absolute;width:0;height:0" xmlns="http://www.w3.org/2000/svg" overflow="hidden"><defs><symbol id="antenna" viewBox="0 0 64 32"><path fill="var(--color1, #212121)" d="M14.361 10.312l-3.94-3.969.437-2.154a.979.979 0 00.354.068h.015a1.008 1.008 0 10-.948-.663l-.002-.007-2.315.283L4.186.075a.243.243 0 00-.35-.002l-.705.702a.248.248 0 000 .352l.38.385a6.889 6.889 0 00-.847 3.331c0 1.916.773 3.651 2.023 4.912.02.019.043.034.068.045a1.347 1.347 0 00-.024.255v2.888H1.744a1.246 1.246 0 00-1.245 1.244v.498c0 .138.112.249.249.249h11.449a.249.249 0 00.249-.249v-.498a1.245 1.245 0 00-1.244-1.244H8.215v-1.28a6.79 6.79 0 001.422.149h.001a6.89 6.89 0 003.321-.85l-.036.018.382.384a.244.244 0 00.35.002l.706-.702a.248.248 0 000-.352zm-3.497-7.403a.498.498 0 11.351.851h-.001a.498.498 0 01-.348-.851h-.001zm-.586 1.635l-.279 1.375-.548-.552.828-.823zm-.283-.421l-.896.891-.693-.697 1.589-.194zm1.207 9.317c.412 0 .747.334.747.747v.249H.998v-.249c0-.412.334-.747.747-.747h9.458zm-3.484-.996v.498H5.229v-.498h2.489zm-2.489-.497v-1.892c0-.604.558-1.095 1.244-1.095s1.245.491 1.245 1.095v1.892H5.229zm2.986-.792v-1.1c0-.878-.781-1.593-1.742-1.593h-.027c-.631 0-1.185.33-1.5.826l-.004.007a6.449 6.449 0 01-1.779-4.457c0-1.08.264-2.098.732-2.993l-.017.036 8.681 8.731a6.471 6.471 0 01-4.387.534l.043.008zm5.269-.319L3.657.952l.352-.351 3.703 3.724c.002 0 .003.003.004.004l6.121 6.156-.353.351z"/><path fill="var(--color2, #2196f3)" d="M6.475 9.458h-.002-.001a.747.747 0 00-.002 1.494h.003a.747.747 0 00.001-1.494zm.174.923a.248.248 0 01-.425-.176c0-.138.111-.249.248-.249a.249.249 0 01.174.425h.002z"/></symbol><symbol id="astronaut" viewBox="0 0 64 32"><path fill="var(--color2, #2196f3)" d="M14.921 2.111a.25.25 0 00-.199-.169h-.001l-.892-.13-.399-.808c-.083-.17-.363-.17-.446 0l-.399.808-.892.13a.249.249 0 00-.138.424l.646.629-.152.888a.25.25 0 00.361.263l.797-.419.797.419a.249.249 0 00.361-.264v.002l-.152-.888.645-.629a.25.25 0 00.062-.257l.001.002zm-1.149.62a.247.247 0 00-.071.22l.089.52-.467-.245a.25.25 0 00-.233 0l.001-.001-.467.245.089-.52a.248.248 0 00-.071-.22l-.378-.368.522-.076a.253.253 0 00.188-.136l.233-.473.233.473a.245.245 0 00.188.136l.522.076-.378.368zm-1.576 6.846h-.498v.498h.498v-.498zm0 .996h-.498v.498h.498v-.498zm.497-.498h-.498v.498h.498v-.498zm-.995 0H11.2v.498h.498v-.498zm-1.245 2.24h-.498v.498h.498v-.498zm0 .995h-.498v.498h.498v-.498zm.498-.497h-.498v.498h.498v-.498zm-.995 0h-.498v.498h.498v-.498zm-2.489-1.494h-.498v.498h.498v-.498zm0 .996h-.498v.498h.498v-.498zm.497-.498h-.498v.498h.498v-.498zm-.995 0h-.498v.498h.498v-.498zm-4.231-8.96H2.24v.498h.498v-.498zm0 .996H2.24v.498h.498v-.498zm.497-.498h-.498v.498h.498v-.498zm-.995 0h-.498v.498h.498v-.498z"/><path fill="var(--color1, #212121)" d="M11.533 6.608a.826.826 0 00-.55-.328h-.004a.823.823 0 00-.626.166l.002-.001-.585.448-.886.661-.634-.253a3.237 3.237 0 001.92-2.949c0-1.784-1.457-3.236-3.248-3.236S3.673 2.568 3.673 4.352c0 .647.193 1.248.523 1.754l-1.292-.011-.011.002a.256.256 0 00-.074.015l.002-.001-.018.006-.009.003-1.509.745h-.001l-.883.425a.214.214 0 00-.03.017h.001a.83.83 0 00-.277 1.076l-.002-.005a.83.83 0 00.487.413l.006.002a.83.83 0 00.648-.062l-.004.002.648-.344 1.056-.546.633-.004-2.54 2.527-.001.001-.625.622a.769.769 0 00-.229.548v.002a.779.779 0 00.778.777h.001a.78.78 0 00.551-.227l.613-.611.812-.607.42.419L1.9 12.731a.769.769 0 00-.229.548v.002a.776.776 0 00.778.776h.002a.784.784 0 00.551-.226l2.095-2.087.01-.007 2.411-2.64 1.62.23a.237.237 0 00.122-.015l.023-.011c.009-.004.018-.007.027-.013l1.5-.995c.006-.004.009-.01.014-.014s.013-.007.019-.012l.593-.556a.829.829 0 00.097-1.105l.002.002zM.994 8.293a.33.33 0 01-.262.023l.002.001a.335.335 0 01-.1-.587l.001-.001.613-.295.148.431.062.181-.463.246zm1.632-.853l-.723.373-.119-.348-.086-.25.946-.467-.019.692zm7.047-3.09c0 .429-.102.833-.279 1.194l-1.951-.886a.871.871 0 00-.365-.646l-.003-.002.683-2.268A2.744 2.744 0 019.673 4.35zm-5.502 0A2.747 2.747 0 017.27 1.637l-.668 2.218c-.009 0-.017-.003-.027-.003a.873.873 0 00-.873.871.872.872 0 001.629.43l1.803.819a2.75 2.75 0 01-2.211 1.115 2.747 2.747 0 01-2.751-2.738zm2.78.374a.375.375 0 01-.375.373h-.001-.001a.375.375 0 01-.375-.373c0-.206.169-.373.376-.373s.376.167.376.373zM1.15 11.735a.282.282 0 01-.399 0c-.051-.05-.082-.12-.082-.197s.031-.147.082-.197l.449-.447.398.396-.447.446zm1.5 1.742a.282.282 0 01-.399 0c-.051-.05-.082-.12-.082-.197s.031-.147.082-.197l.449-.448.397.396-.448.446zm1.625-1.619l-.001.001-.823.821-.398-.396.824-.82c.019-.019.03-.041.042-.063.003-.006.009-.012.012-.019.008-.019.009-.04.012-.06.002-.012.006-.022.006-.034 0-.016-.006-.033-.009-.049-.003-.015-.003-.03-.009-.045a.225.225 0 00-.043-.064c-.005-.006-.006-.013-.012-.018s0-.001 0-.001l-.75-.747c-.008-.008-.018-.011-.027-.018a.204.204 0 00-.039-.026l-.001-.001a.23.23 0 00-.042-.015h-.002a.218.218 0 00-.047-.009h-.012a.198.198 0 00-.035.003h.001c-.017.002-.032.004-.048.01s-.031.013-.045.021l.001-.001c-.009.005-.02.007-.028.013l-.828.618-.42-.419 1.12-1.114 2.035 2.002-.433.429zm3.182-3.274c-.007-.001-.014.002-.021.001h-.012a.202.202 0 00-.043.004h.001a.219.219 0 00-.087.033l.001-.001a.232.232 0 00-.039.029c-.006.005-.013.008-.019.014l-2.192 2.401-2.02-1.986 1.322-1.315a.249.249 0 00-.176-.425h-.001l-1.036.006.013-.75 1.449.012c.59.605 1.413.98 2.323.98h.002c.204 0 .403-.021.597-.057.019.015.037.03.06.039l1.125.448.071.354.083.413-1.401-.199zm1.886.083l-.146-.727.675-.504.442.587-.971.644zm1.751-1.321l-.391.367-.435-.577.388-.297a.336.336 0 01.543.265.335.335 0 01-.105.243z"/><path fill="var(--color1, #212121)" d="M6.348 8.654l-1-.996a.248.248 0 00-.352 0l-1 .996a.25.25 0 000 .352l1 .996a.248.248 0 00.352 0l1-.996a.248.248 0 000-.352zm-1.176.821l-.647-.644.647-.644.647.644-.647.644zM8.01 2.366l-.12.483c.033.008.811.211.811 1.003h.498c0-.941-.777-1.384-1.188-1.486zM9.198 4.35H8.7v.498h.498V4.35z"/></symbol><symbol id="clock" viewBox="0 0 64 32"><path fill="var(--color1, #212121)" d="M14.605 7.14a7.142 7.142 0 10-14.284.004 7.145 7.145 0 004.919 6.788l.051.014a.313.313 0 00.247-.031.298.298 0 00.132-.166l1.804-5.717a.893.893 0 10-.397-1.695l.005-.002-2.383-2.383a.298.298 0 00-.422.422l2.381 2.384a.872.872 0 00.249 1.076l.002.001-1.719 5.447a6.554 6.554 0 118.415-3.884 6.592 6.592 0 01-3.441 3.704l-.041.017-.186-.875a.298.298 0 00-.489-.16l-1.79 1.599a.298.298 0 00.106.505l.002.001 2.286.73a.297.297 0 00.381-.347v.002l-.182-.858c2.58-1.108 4.353-3.627 4.353-6.56V7.14v.001zm-7.142-.297a.298.298 0 010 .596.298.298 0 010-.596zm.98 6.937l1.019-.909.281 1.325-1.301-.416z"/><path fill="var(--color2, #2196f3)" d="M7.165 1.486v.595a.298.298 0 00.596 0v-.595a.298.298 0 00-.596 0zM1.809 6.843a.298.298 0 000 .596h.595a.298.298 0 000-.596h-.595zm11.308.595a.298.298 0 000-.596h-.595a.298.298 0 000 .596h.595z"/></symbol><symbol id="diagram" viewBox="0 0 64 32"><path fill="var(--color2, #2196f3)" d="M6.965 6.983h.497v2.239h-.497V6.983zm1.99.996h.498v1.244h-.498V7.979zm-3.98.746h.497v.498h-.497v-.498zm-1.492-.249h.498v.746h-.498v-.746z"/><path fill="var(--color1, #212121)" d="M.746 13.202h11.94a.746.746 0 00.746-.746v-.995a.746.746 0 00-.746-.746h-.249V4.511l1.413-1.338a.75.75 0 10-.347-.351l-.002-.005-1.065 1.009v-.574a.746.746 0 00-.746-.746H1.74a.746.746 0 00-.746.746v7.463H.745a.746.746 0 00-.746.746v.995c0 .412.334.746.746.746zM14.179 2.257a.249.249 0 010 .498.249.249 0 010-.498zm-12.687.995c0-.137.111-.249.249-.249h9.95c.137 0 .249.111.249.249v1.045l-.498.473V3.75a.249.249 0 00-.249-.249H2.238a.249.249 0 00-.249.249v6.219a.25.25 0 00.249.249h8.955a.248.248 0 00.249-.249V5.454l.498-.471v5.732H1.492V3.253zm2.239 3.234h-.002a.746.746 0 10.519 1.282l.865.434a.25.25 0 00.297-.057l1.838-2.068 1.807 1.354a.248.248 0 00.32-.018l1.57-1.488V9.72H2.487V3.998h8.458V5.24l-1.76 1.667-1.822-1.366a.247.247 0 00-.335.033L5.165 7.671l-.697-.348a.686.686 0 00.009-.09.746.746 0 00-.746-.746zm.249.746a.249.249 0 01-.498 0 .249.249 0 01.498 0zm1.493 3.98H7.96v.249a.249.249 0 01-.249.249h-1.99a.249.249 0 01-.249-.249v-.249zm-4.975.249c0-.137.111-.249.249-.249h4.229v.249c0 .412.334.746.746.746h1.99a.746.746 0 00.746-.746v-.249h4.229c.137 0 .249.111.249.249v.995a.249.249 0 01-.249.249H.747a.249.249 0 01-.249-.249v-.995z"/></symbol><symbol id="envelope" viewBox="0 0 64 32"><path fill="var(--color3, #757575)" d="M3.093 0H.32A.32.32 0 000 .32v1.92c0 .176.144.32.32.32h2.773a.32.32 0 00.32-.32V.32a.32.32 0 00-.32-.32zm0 .213c.014 0 .028.003.041.008L1.706 1.458.278.221A.107.107 0 01.319.213h2.773zm0 2.134H.32a.107.107 0 01-.107-.107V.447l1.423 1.234a.108.108 0 00.14 0L3.199.447V2.24a.107.107 0 01-.107.107z"/></symbol><symbol id="facebook" viewBox="0 0 64 32"><path fill="var(--color4, #afb1b8)" d="M2.844.708h.39V.03A4.88 4.88 0 002.686 0h-.021.001c-.562 0-.947.353-.947 1.003V1.6h-.62v.758h.62v1.908h.76V2.358h.595l.094-.758h-.689v-.523c0-.219.059-.369.365-.369z"/></symbol><symbol id="instagram" viewBox="0 0 64 32"><path fill="var(--color4, #afb1b8)" d="M4.262 1.254a1.548 1.548 0 00-.099-.518 1.04 1.04 0 00-.246-.378 1.061 1.061 0 00-.37-.244L3.54.112a1.58 1.58 0 00-.518-.099C2.794.002 2.721 0 2.142 0s-.652.003-.879.013C1.036.023.88.059.746.112a1.06 1.06 0 00-.379.247C.261.463.178.589.124.729L.122.736a1.553 1.553 0 00-.099.518c-.011.228-.013.301-.013.88s.003.652.013.879c.01.227.047.382.099.518.057.148.141.274.246.378.104.106.23.189.37.243l.007.002c.136.053.291.089.518.099.228.01.3.013.879.013s.652-.003.879-.013c.227-.01.382-.046.518-.099.288-.113.511-.337.622-.617l.003-.007a1.58 1.58 0 00.099-.518c.01-.228.012-.3.012-.879s-.001-.652-.011-.879zm-.384 1.742a1.143 1.143 0 01-.074.396.711.711 0 01-.4.403l-.005.002a1.174 1.174 0 01-.396.073c-.225.01-.292.013-.862.013s-.638-.003-.862-.013a1.174 1.174 0 01-.396-.073.662.662 0 01-.245-.159.67.67 0 01-.158-.24l-.002-.005a1.174 1.174 0 01-.073-.396c-.01-.225-.013-.293-.013-.862s.003-.638.013-.862C.414 1.065.449.952.478.877a.652.652 0 01.16-.245.665.665 0 01.241-.158L.884.472c.075-.029.188-.064.396-.073.225-.01.292-.012.862-.012s.638.003.862.012c.208.009.321.044.396.073a.653.653 0 01.245.159.661.661 0 01.159.245c.029.075.064.188.073.396.01.225.013.292.013.862s-.003.636-.013.861z"/><path fill="var(--color4, #afb1b8)" d="M2.141 1.038a1.096 1.096 0 100 2.191 1.096 1.096 0 000-2.191zm0 1.807a.71.71 0 110-1.422.71.71 0 110 1.422zM3.537.994a.256.256 0 01-.512 0 .256.256 0 01.512 0z"/></symbol><symbol id="linkedin" viewBox="0 0 64 32"><path fill="var(--color4, #afb1b8)" d="M4.266 4.267h.001V2.702c0-.765-.165-1.355-1.06-1.355-.43 0-.719.236-.837.46h-.012v-.388h-.849v2.848h.884v-1.41c0-.371.07-.731.53-.731.453 0 .46.424.46.754v1.387h.883zM.07 1.418h.885v2.849H.07V1.418zM.512 0A.512.512 0 000 .512c0 .283.23.517.512.517s.512-.234.512-.517A.512.512 0 00.512 0z"/></symbol><symbol id="logo-four" viewBox="0 0 64 32"><path fill="var(--color2, #2196f3)" d="M2.646 2.737h-.001a.863.863 0 00-.874.852v.001c0 .47.391.852.874.852h.001a.863.863 0 00.874-.852v-.001a.863.863 0 00-.874-.851zm6.45-.272c-.002-.653-.268-1.279-.742-1.741A2.57 2.57 0 004.78.723a2.433 2.433 0 00-.742 1.742v3.602s5.058-.549 5.059-3.602zM0 7.25c.002.476.2.904.516 1.211.321.311.76.504 1.243.504.483 0 .922-.192 1.243-.504.317-.307.514-.736.517-1.211V4.743s-3.52.383-3.52 2.506zm1.76.449h-.001a.463.463 0 01-.257-.077l.002.001a.46.46 0 01-.169-.199l-.001-.003a.437.437 0 01-.026-.262v.003a.452.452 0 01.359-.352h.003a.484.484 0 01.269.026l-.003-.001A.467.467 0 012.143 7a.436.436 0 01.042.425l.001-.003a.47.47 0 01-.427.278v-.002zm3.593-.279h-.36v.372h-.188v-.91h.593v.152h-.405v.235h.36v.151zm.901-.063c0 .09-.016.168-.048.236a.358.358 0 01-.135.155l-.001.001a.368.368 0 01-.196.055h-.007a.362.362 0 01-.339-.207l-.001-.002a.53.53 0 01-.049-.225v-.053c0-.09.016-.169.048-.236a.363.363 0 01.34-.212.357.357 0 01.339.212.55.55 0 01.049.236v.041zm-.19-.041a.388.388 0 00-.051-.218.166.166 0 00-.139-.074h-.015a.166.166 0 00-.138.073v.001a.375.375 0 00-.052.215v.044c0 .093.017.165.051.216s.083.077.148.077h.007a.164.164 0 00.137-.073v-.001a.383.383 0 00.051-.216v-.044zm.798.237v-.005a.098.098 0 00-.037-.076.49.49 0 00-.135-.06 1.026 1.026 0 01-.16-.065l.005.003c-.103-.056-.155-.131-.155-.226 0-.049.014-.093.041-.131s.068-.069.119-.091c.052-.022.11-.032.175-.032s.123.012.174.036c.051.023.09.057.118.099s.043.092.043.146h-.188c0-.042-.013-.074-.039-.097s-.063-.035-.111-.035a.175.175 0 00-.107.029.092.092 0 00-.038.074v.002c0 .029.015.054.044.074s.074.039.132.056c.107.032.184.072.233.119s.073.107.073.177c0 .079-.03.141-.089.186s-.14.067-.241.067a.472.472 0 01-.191-.038.302.302 0 01-.131-.105l-.001-.001a.27.27 0 01-.045-.15v-.006h.188c0 .1.06.151.18.151a.18.18 0 00.105-.027.088.088 0 00.037-.073V7.55zm1-.519h-.279v.758h-.188v-.758H7.12v-.152h.741v.152zm.655.364h-.36v.244h.423v.151h-.61v-.91h.609v.152h-.421v.217h.36v.147zm.51.061h-.149v.333H8.69v-.91h.338c.107 0 .19.024.249.072s.087.116.087.203a.283.283 0 01-.041.156.273.273 0 01-.12.098l-.002.001.197.372v.009h-.201l-.171-.333zm-.15-.152h.151a.154.154 0 00.109-.036.13.13 0 00.039-.093v-.007c0-.043-.012-.077-.037-.101s-.061-.037-.112-.037h-.151v.273zm1.137.164v.321h-.188v-.91h.355c.068 0 .128.012.18.038a.285.285 0 01.162.264c0 .089-.03.16-.092.211s-.145.077-.253.077h-.164zm0-.152h.167c.05 0 .087-.012.113-.035s.039-.057.039-.1v-.007a.15.15 0 00-.04-.102.147.147 0 00-.109-.043h-.172v.286zm1.186.079h-.36v.244h.422v.151h-.61v-.91h.609v.152h-.421v.217h.36v.147zm.87-.364h-.279v.758h-.188v-.758h-.275v-.152h.741v.152zm.655.364h-.36v.244h.422v.151h-.61v-.91h.609v.152h-.421v.217h.36v.147zm.509.061h-.149v.333h-.188v-.91h.338c.108 0 .191.024.249.072s.087.116.087.203a.275.275 0 01-.041.156.273.273 0 01-.12.098l-.002.001.197.372v.009h-.201l-.171-.333zm-.149-.152h.151a.154.154 0 00.109-.036.13.13 0 00.039-.092v-.007c0-.043-.012-.077-.037-.101s-.061-.037-.112-.037h-.151v.273zm1.102.246v-.005a.098.098 0 00-.037-.076.49.49 0 00-.135-.06 1.026 1.026 0 01-.16-.065l.005.003c-.103-.056-.155-.131-.155-.226 0-.049.014-.093.041-.131s.068-.069.119-.091a.437.437 0 01.168-.032h.007c.065 0 .123.012.174.036s.09.057.118.099a.262.262 0 01.042.146h-.188c0-.042-.013-.074-.039-.097s-.063-.035-.111-.035a.175.175 0 00-.107.029.092.092 0 00-.038.074v.002c0 .029.015.054.044.074s.074.039.132.056c.107.032.185.072.233.119s.073.107.073.177c0 .079-.03.141-.089.186s-.14.067-.241.067a.472.472 0 01-.191-.038.302.302 0 01-.131-.105l-.001-.001a.27.27 0 01-.045-.15v-.006h.188c0 .1.06.151.18.151a.18.18 0 00.105-.027.088.088 0 00.037-.073V7.55z"/></symbol><symbol id="logo-five" viewBox="0 0 64 32"><path fill="var(--color4, #afb1b8)" d="M.957 8.379a.336.336 0 01.074.215v.017a.34.34 0 01-.114.255.49.49 0 01-.333.099H0V7.599h.572l.032-.001a.48.48 0 01.286.093L.889 7.69A.312.312 0 011 7.929v.017-.001a.322.322 0 01-.066.209.311.311 0 01-.172.106H.76a.33.33 0 01.198.117zm-.685-.206h.244a.235.235 0 00.156-.045.162.162 0 00.053-.12l-.001-.014v-.011a.17.17 0 00-.052-.122.236.236 0 00-.141-.047l-.02.001h.001-.24v.358zm.424.524a.168.168 0 00.058-.128v-.011V8.549a.172.172 0 00-.059-.13.25.25 0 00-.15-.05l-.017.001h.001-.256v.376h.26a.26.26 0 00.164-.047zm1.432.27l-.319-.534h-.12v.534h-.274V7.601h.518l.036-.001c.124 0 .238.044.326.118l-.001-.001a.434.434 0 01.037.566l.001-.001a.417.417 0 01-.247.139l.339.546h-.298zm-.439-.721h.224c.156 0 .233-.069.233-.207v-.012a.203.203 0 00-.058-.142.241.241 0 00-.155-.056l-.022.001h.001-.227l.003.416zm1.936.446h-.546l-.096.275h-.287l.501-1.351h.31l.499 1.351h-.287l-.094-.275zm-.073-.207l-.199-.577-.199.577h.399zm1.947.482h-.272l-.61-.929v.929h-.271V7.601h.271l.61.934v-.934h.272v1.366zm1.552-.327a.597.597 0 01-.243.24l-.003.002a.791.791 0 01-.361.086h-.022.001-.484V7.602h.505c.132 0 .256.031.366.087l-.005-.002c.104.052.19.136.246.238a.794.794 0 01-.002.721l.002-.005zm-.312-.033a.503.503 0 00-.001-.653l.001.001a.47.47 0 00-.311-.117l-.031.001h.001-.189v.884h.189a.47.47 0 00.34-.116h-.001zM3.795 0s3.51 1.33 3.436 3.255v3.256S3.724 5.18 3.797 3.255L3.795 0zm6.562 5.749a4.743 4.743 0 012.209-.823l.021-.002V3.905a4.61 4.61 0 00-2.219 1.826l-.011.019z"/><path fill="var(--color4, #afb1b8)" d="M9.958 6.056a4.802 4.802 0 012.595-2.354l.033-.011V.754S7.588 2.649 7.693 5.39v4.636s.223-.085.573-.244c0-.148 0-.298.016-.448a4.822 4.822 0 011.669-3.273l.007-.005z"/><path fill="var(--color4, #afb1b8)" d="M9.483 7.779c.026-.322.085-.64.175-.949A4.457 4.457 0 008.6 9.625v.005c.407-.196.722-.365 1.03-.546l-.068.037a4.676 4.676 0 01-.076-1.361l-.001.018zm.199.016a4.613 4.613 0 00.067 1.245l-.005-.029c1.366-.82 2.9-2.088 2.841-3.62v-.134a4.472 4.472 0 00-2.6 1.22l.001-.001a4.465 4.465 0 00-.303 1.303l-.001.016z"/></symbol><symbol id="logo-one" viewBox="0 0 64 32"><path fill="var(--color4, #afb1b8)" d="M1.28 0l1.559 1.476h4.349v4.117l1.559 1.476V0H1.28z"/><path fill="var(--color4, #afb1b8)" d="M0 1.414v6.867h7.253V5.552L2.885 1.416 0 1.414zm5.872 5.862H1.148V2.658h.334v4.306h4.39v.313zM2.089 9.554l.175-.359h.146l-.255.479v.279h-.132v-.279l-.254-.479h.146l.175.359zm.749.222h-.294l-.061.177h-.137l.286-.758h.118l.287.758h-.138l-.062-.177zm-.257-.106h.22l-.11-.315-.11.315zm.776.078c0-.035.01-.067.029-.096s.057-.064.113-.105a.525.525 0 01-.061-.092l-.001-.003a.183.183 0 01-.017-.075c0-.06.018-.106.054-.141s.085-.052.146-.052c.055 0 .1.016.135.049s.053.073.053.12v.001a.161.161 0 01-.025.087V9.44a.28.28 0 01-.078.079l-.001.001-.052.038.147.173a.306.306 0 00.032-.139h.11a.38.38 0 01-.066.23l.111.132h-.147l-.043-.051a.312.312 0 01-.186.061h-.008a.261.261 0 01-.18-.06.2.2 0 01-.067-.149v-.007zm.251.114a.19.19 0 00.12-.043l-.166-.195-.016.012c-.042.032-.063.068-.063.108a.11.11 0 00.034.085c.022.02.052.033.085.033h.006zm-.07-.488c0 .029.018.066.054.11l.058-.039.016-.013a.093.093 0 00.032-.071v-.003-.001a.07.07 0 00-.022-.05.08.08 0 00-.054-.021h-.006a.077.077 0 00-.056.025.09.09 0 00-.022.06v.003zm1.378.332c-.008.081-.038.144-.09.189s-.121.068-.208.068a.295.295 0 01-.16-.043.289.289 0 01-.106-.121l-.001-.002a.429.429 0 01-.039-.181v-.074c0-.071.013-.134.038-.189s.062-.097.109-.126a.3.3 0 01.159-.044h.006c.084 0 .151.023.202.068s.081.11.089.193h-.131c-.006-.054-.022-.094-.048-.118s-.063-.036-.112-.036c-.057 0-.101.021-.132.063s-.046.103-.047.184v.067c0 .082.015.144.044.188s.073.065.129.065c.052 0 .091-.012.117-.035s.043-.062.05-.116h.131zm.723-.113a.48.48 0 01-.038.196.3.3 0 01-.109.129l-.001.001c-.048.03-.102.045-.165.045s-.116-.015-.164-.045a.297.297 0 01-.111-.127L5.05 9.79a.444.444 0 01-.04-.185v-.051c0-.074.013-.139.039-.196a.29.29 0 01.275-.175.29.29 0 01.275.173.459.459 0 01.039.195v.042zm-.132-.039a.33.33 0 00-.048-.193.154.154 0 00-.128-.067h-.012c-.053 0-.1.026-.128.067v.001a.327.327 0 00-.049.189v.044c0 .083.016.148.049.193s.078.068.135.068c.058 0 .103-.022.134-.067s.047-.109.047-.195v-.039z"/></symbol><symbol id="logo-six" viewBox="0 0 64 32"><path fill="var(--color4, #afb1b8)" d="M9.545 4.555a.688.688 0 01-.121-.441v.002-.636c0-.195.041-.343.121-.445s.219-.152.416-.151c.185 0 .316.043.393.13a.56.56 0 01.116.381v.149h-.33v-.151-.02a.968.968 0 00-.01-.133l.001.005a.144.144 0 00-.047-.088.175.175 0 00-.106-.035l-.015.001h.001l-.014-.001a.193.193 0 00-.113.037h.001a.168.168 0 00-.054.096v.001a.757.757 0 00-.013.157v.772l-.001.03c0 .068.016.133.044.19l-.001-.002a.157.157 0 00.065.052h.001a.171.171 0 00.065.013l.021-.001h-.001l.014.001a.166.166 0 00.104-.036.157.157 0 00.049-.093v-.001a.89.89 0 00.01-.155v-.157h.33v.143a.617.617 0 01-.116.402l.001-.002c-.076.095-.205.142-.395.142s-.334-.05-.415-.155zm1.375.007c-.083-.099-.125-.243-.125-.434v-.669c0-.189.042-.332.125-.429s.223-.146.418-.145c.194 0 .333.048.416.145s.126.24.126.429v.669c0 .189-.043.334-.127.434s-.223.149-.415.149c-.192 0-.334-.05-.418-.149zm.572-.161a.4.4 0 00.04-.198v-.819l.001-.022a.388.388 0 00-.041-.174l.001.002a.162.162 0 00-.066-.053h-.001a.167.167 0 00-.088-.011h.001l-.022-.002a.176.176 0 00-.066.013h.001a.16.16 0 00-.067.053.385.385 0 00-.039.195v-.001.823a.39.39 0 00.04.198.208.208 0 00.068.049h.001a.211.211 0 00.171-.001l-.001.001a.202.202 0 00.069-.049v-.004zm.785-1.498h.356l.267 1.235.274-1.235h.346l.035 1.783H13.3l-.027-1.239-.264 1.239h-.205l-.274-1.243-.025 1.243h-.259l.032-1.782zm1.676 0h.554c.319 0 .479.169.479.506 0 .323-.168.484-.504.484h-.188v.792h-.342l.002-1.782zm.473.762a.24.24 0 00.188-.057.306.306 0 00.049-.201v-.021a.626.626 0 00-.017-.145l.001.004a.134.134 0 00-.025-.049.121.121 0 00-.043-.035h-.001a.325.325 0 00-.134-.029l-.019.001h.001-.133v.532h.133zm1.053-.762h.367l.377 1.783h-.319l-.074-.411h-.327l-.077.411h-.323l.377-1.782zm.313 1.166l-.128-.748-.128.748h.256zm.735-1.166h.239l.458 1.017V2.903h.284v1.782h-.228l-.461-1.062v1.062h-.293l.001-1.782zm1.645 1.103l-.381-1.1h.321l.233.707.218-.707h.314l-.376 1.1v.68h-.328v-.68zm-8.099 1.459v.093h-.279v.724h-.117v-.724h-.28v-.093h.676zm.874.818h-.093a.036.036 0 01-.023-.008.04.04 0 01-.015-.019l-.081-.194h-.387l-.081.194a.052.052 0 01-.012.022.038.038 0 01-.023.008h-.092l.342-.817h.119l.346.814zm-.566-.304h.323l-.137-.333a.552.552 0 01-.024-.072l-.001-.004-.013.043-.012.034-.135.332zm1.155.224a.333.333 0 00.119-.01.536.536 0 00.052-.016l-.003.001.046-.02v-.184h-.137-.002a.025.025 0 01-.017-.006.017.017 0 01-.007-.014V5.89h.265v.313a.494.494 0 01-.141.066l-.004.001a.577.577 0 01-.083.017h-.003c-.03.003-.064.005-.099.005h-.005a.47.47 0 01-.172-.032l.003.001a.384.384 0 01-.224-.213l-.001-.003a.436.436 0 01-.032-.164v-.006-.005a.45.45 0 01.032-.169l-.001.003a.39.39 0 01.225-.214.599.599 0 01.36-.002.385.385 0 01.128.075l-.033.051a.03.03 0 01-.011.011.027.027 0 01-.016.004.047.047 0 01-.021-.006.545.545 0 01-.035-.02l.002.001a.256.256 0 00-.044-.021l-.002-.001a.471.471 0 00-.06-.018h-.003a.425.425 0 00-.082-.007H11.521a.37.37 0 00-.13.023l.003-.001a.259.259 0 00-.1.065.294.294 0 00-.064.102.421.421 0 00.001.275l-.001-.003a.294.294 0 00.168.168c.044.014.09.02.135.016zm1.09-.013h.373v.093h-.487v-.817h.117l-.003.724zm.762.093h-.117v-.817h.117v.817zm.435-.814a.065.065 0 01.018.015l.5.616-.001-.015.001-.015v.001-.609h.102v.821h-.063a.054.054 0 01-.022-.005.065.065 0 01-.018-.015l-.499-.615v.636h-.098v-.817h.061a.04.04 0 01.019.004zm1.48-.004v.09h-.414v.27h.336v.087h-.336v.279h.414v.09h-.535v-.816h.535zM3.051.417l5.191 1.395v4.89L3.051 5.307V.416zM2.719 0v5.545L8.576 7.12V1.575L2.719 0z"/><path fill="var(--color4, #afb1b8)" d="M5.857 9.694L0 8.118V2.573l5.857 1.575v5.545z"/><path fill="var(--color4, #afb1b8)" d="M2.816.354L7.94 1.732 5.761 3.795.637 2.416 2.817.353zM2.719 0L0 2.573l5.857 1.575 2.718-2.573L2.718 0zm3.468 9.382l2.388-2.261-2.388-.643v2.904z"/></symbol><symbol id="logo-three" viewBox="0 0 64 32"><path fill="var(--color4, #afb1b8)" d="M1.354 8.916c.007 0 .013.003.017.007l.044.046a.352.352 0 01-.124.087.432.432 0 01-.164.031h-.012.001-.009a.44.44 0 01-.159-.03l.003.001a.356.356 0 01-.203-.208l-.001-.002a.444.444 0 01-.028-.158v-.006-.007c0-.057.011-.111.031-.161l-.001.003a.373.373 0 01.217-.21.466.466 0 01.169-.029.424.424 0 01.158.027.427.427 0 01.118.074l-.037.049a.038.038 0 01-.009.009c-.004.002-.008.004-.013.004H1.35a.03.03 0 01-.016-.005l-.02-.013-.028-.017a.315.315 0 00-.085-.029h-.002a.373.373 0 00-.06-.005h-.01a.32.32 0 00-.12.023l.002-.001a.3.3 0 00-.096.062c-.027.028-.048.062-.062.098s-.023.08-.023.125v.005a.35.35 0 00.023.132.288.288 0 00.061.098.247.247 0 00.091.061.31.31 0 00.113.021.502.502 0 00.067-.004.248.248 0 00.145-.067.037.037 0 01.021-.009zm1.267-.231a.417.417 0 01-.03.163.35.35 0 01-.083.126.386.386 0 01-.127.082l-.003.001a.502.502 0 01-.337-.001l.003.001a.38.38 0 01-.212-.208l-.001-.002a.446.446 0 01.001-.329l-.001.003a.388.388 0 01.083-.128.384.384 0 01.126-.079l.003-.001a.472.472 0 01.337.001l-.003-.001a.364.364 0 01.213.209c.02.052.03.108.03.164zm-.115 0v-.007a.375.375 0 00-.022-.126l.001.003a.262.262 0 00-.15-.159l-.002-.001a.368.368 0 00-.245.001l.002-.001a.257.257 0 00-.151.158l-.001.002a.42.42 0 000 .262c.025.073.08.131.15.158l.002.001a.362.362 0 00.243 0 .269.269 0 00.093-.061.299.299 0 00.059-.098.364.364 0 00.021-.131zm.98.137l.012.029.014-.033-.001.003.015-.03-.001.001.28-.486c.006-.009.011-.014.016-.015s.012-.003.019-.003H3.927v.79h-.098v-.605-.014-.014.001l-.282.493a.04.04 0 01-.016.018.046.046 0 01-.023.006h-.017-.001a.035.035 0 01-.023-.007.035.035 0 01-.016-.018l-.29-.496v.634h-.095v-.788H3.153c.007 0 .013.001.019.003h-.001a.028.028 0 01.015.015l.286.486a.17.17 0 01.014.027v.001zm1.055-.039v.296h-.11v-.788h.254c.045 0 .089.006.131.018l-.003-.001a.27.27 0 01.097.049.21.21 0 01.055.077.27.27 0 01-.001.202.222.222 0 01-.059.079.275.275 0 01-.095.052l-.002.001a.421.421 0 01-.132.018l-.133-.002zm0-.085h.133a.301.301 0 00.085-.012.186.186 0 00.062-.034.134.134 0 00.037-.051V8.6a.167.167 0 00.013-.065v-.002-.008c0-.02-.004-.04-.012-.057v.001a.16.16 0 00-.038-.054.219.219 0 00-.148-.042h.001-.133v.325zm1.475.382h-.089a.048.048 0 01-.023-.007.049.049 0 01-.014-.018l-.075-.191H5.44l-.077.191a.049.049 0 01-.014.018.038.038 0 01-.023.008h-.088l.329-.79h.114l.334.79zm-.543-.294h.309l-.131-.322a.52.52 0 01-.024-.07l-.001-.004-.013.041a.249.249 0 01-.013.036l.001-.003-.13.321zm1.017-.493a.08.08 0 01.017.014l.48.595v-.613h.098v.79H7.03h-.001a.046.046 0 01-.021-.005.05.05 0 01-.017-.015l-.48-.595v.014l-.001.014v-.001.587h-.098v-.79h.058c.007 0 .013.001.02.004zm1.404.472v.314h-.11v-.314l-.303-.476h.1c.008 0 .016.003.022.007a.065.065 0 01.015.018l.19.307.02.037.014.033.014-.034a.255.255 0 01.019-.037l-.001.001.187-.309a.115.115 0 01.014-.017.033.033 0 01.022-.008h.101l-.304.478zM3.432 6.964c.048.006.096.011.145.015a4.08 4.08 0 001.801-1.485 3.76 3.76 0 00.64-2.109l-.001-.081v.004l-.816-.777a4.315 4.315 0 01-.234 2.484l.01-.029a4.55 4.55 0 01-1.545 1.978z"/><path fill="var(--color4, #afb1b8)" d="M3.14 6.928l.022.004a4.405 4.405 0 001.632-2.036 4.185 4.185 0 00.144-2.587l.007.029-1.162-1.107c.364.687.577 1.502.577 2.366 0 .201-.012.399-.034.594l.002-.024a5.226 5.226 0 01-1.188 2.76zm3.942-2.707a4.01 4.01 0 01-1.367 2.183 4.257 4.257 0 01-.628.433l-.021.011a3.892 3.892 0 001.515-.817l-.005.004c.42-.367.753-.824.969-1.341l.009-.024-.471-.449z"/><path fill="var(--color4, #afb1b8)" d="M6.897 4.096l-.671-.639a3.921 3.921 0 01-.639 2.078l.009-.015c-.4.622-.967 1.13-1.642 1.473h.003c.151 0 .301-.009.451-.026a4.139 4.139 0 001.619-1.132l.004-.005c.417-.476.72-1.062.861-1.708l.005-.026zM3.238.764L2.437 0C1.721.263 1.106.727.671 1.329S.002 2.645 0 3.375c.003.808.288 1.591.811 2.227s1.253 1.087 2.076 1.283c.734-.852 1.164-1.905 1.227-3.006A5 5 0 003.237.763zm5.509 3.214c-.003-.958-.404-1.877-1.115-2.554S5.957.364 4.951.362h-.006c-.486 0-.951.088-1.381.25l.027-.009 4.902 4.67c.16-.383.253-.827.253-1.294z"/></symbol><symbol id="logo-two" viewBox="0 0 64 32"><path fill="var(--color4, #afb1b8)" d="M3.622.626h.029a4.843 4.843 0 01.926.124V.139a4.262 4.262 0 00-.765-.124L3.797.014a6.24 6.24 0 00-.308-.015h-.098a6.355 6.355 0 00-1.565.202C1.196.361.643.592.136.893L.165.877v6.058a6.579 6.579 0 011.536-.607l.047-.01a6.6 6.6 0 011.31-.203l.018-.001h.018c.067-.004.146-.006.226-.006h.001v-.621a7.305 7.305 0 00-1.778.241l.051-.011a8.043 8.043 0 00-.6.178l-.216.073V1.244L.87 1.2A5.94 5.94 0 013.097.628l.016-.001h.02c.086-.004.172-.006.257-.006h.097c.045.001.09.002.134.005z"/><path fill="var(--color4, #afb1b8)" d="M5.143 1.266h-.005c-.317 0-.628-.027-.93-.078l.033.005a4.684 4.684 0 01-.282-.057v5.989c.388.096.787.143 1.187.14a6.419 6.419 0 001.61-.211l-.045.01a6.327 6.327 0 001.691-.692l-.03.016V.438a6.615 6.615 0 01-1.535.607l-.047.01a6.721 6.721 0 01-1.645.211zm2.395.103l.216-.073v4.725l-.092.045a5.72 5.72 0 01-1.063.388l-.041.009a5.75 5.75 0 01-1.412.183c-.143 0-.284-.006-.421-.018l-.148-.013V1.756l.172.012c.114.008.247.012.381.012h.015-.001a7.316 7.316 0 001.844-.241l-.051.011c.27-.07.47-.132.667-.2l-.067.02zM.584 9.005a.317.317 0 00-.229-.097H.343h.001-.005a.362.362 0 00-.136.027l.002-.001a.313.313 0 00-.177.178l-.001.002a.362.362 0 00-.025.134v.809a.378.378 0 00.032.166.288.288 0 00.192.167c.039.011.08.017.121.017a.343.343 0 00.336-.341v-.09H.471v.077a.201.201 0 01-.013.069v-.001a.133.133 0 01-.031.046.149.149 0 01-.088.031l-.012.001a.107.107 0 01-.087-.044.188.188 0 01-.028-.1v-.763a.267.267 0 01.026-.121.11.11 0 01.104-.049H.341h.004c.037 0 .07.018.09.045a.171.171 0 01.035.104V9.346h.209v-.083-.004a.369.369 0 00-.027-.141l.001.003a.35.35 0 00-.071-.114zm1.257-.009a.36.36 0 00-.366-.066.337.337 0 00-.193.177l-.001.002a.383.383 0 00-.031.157v.776a.361.361 0 00.031.159.314.314 0 00.082.109.369.369 0 00.238.091.367.367 0 00.241-.091.321.321 0 00.08-.109.376.376 0 00.031-.159v-.776-.007a.37.37 0 00-.032-.152l.001.002a.356.356 0 00-.08-.113zm-.099 1.046l.001.012a.139.139 0 01-.042.1c-.027.023-.062.036-.1.036s-.073-.014-.1-.036a.14.14 0 01-.043-.1l.001-.013v.001-.776-.012c0-.039.016-.075.042-.1.027-.023.062-.036.1-.036s.073.014.1.036a.14.14 0 01.043.1l-.001.013v-.001.777zm1.75.347v-1.47h-.203l-.267.778h-.004l-.269-.778h-.201v1.469h.21v-.894h.004l.205.632h.105l.207-.632h.004v.894h.21zm1.192-1.366a.285.285 0 00-.119-.08.444.444 0 00-.144-.023h-.319v1.47h.209v-.574h.125a.388.388 0 00.174-.041l-.002.001a.304.304 0 00.114-.111l.001-.001c.024-.039.041-.083.048-.128s.011-.1.011-.154v-.014.001a.875.875 0 00-.02-.21.323.323 0 00-.077-.135zm-.108.448a.188.188 0 01-.02.078v-.001a.119.119 0 01-.053.051h-.001a.21.21 0 01-.088.019h-.011.001-.096v-.5h.118c.031 0 .06.007.086.019l-.001-.001a.12.12 0 01.049.053v.001a.197.197 0 01.018.082v.098c0 .034.002.07 0 .101h-.002zm1.1-.552h-.172l-.324 1.47h.21l.061-.316h.285l.062.316h.209l-.332-1.47zm-.193.954l.103-.533h.004l.102.533h-.209zm1.546-.068h-.004l-.316-.885h-.201v1.47h.21v-.884h.004l.32.884h.197V8.921H7.03v.885zm1.28-.886l-.169.585h-.004l-.169-.585h-.221l.288.849v.621h.209v-.621l.288-.848h-.222zM0 10.804h.101v.283h.068v-.283h.1v-.058h-.27v.058zm.848-.058l-.132.341h.073l.028-.078h.136l.029.078h.075l-.136-.341H.848zm-.01.206l.046-.127.046.127H.837zm.849.009h.079v.044a.127.127 0 01-.081.029H1.68a.084.084 0 01-.067-.033.141.141 0 01-.025-.081v-.008c0-.076.033-.114.098-.114h.007c.034 0 .062.023.07.054v.001l.067-.013c-.014-.067-.063-.1-.145-.1H1.68a.175.175 0 00-.115.044.164.164 0 00-.049.131v-.001.008c0 .046.017.088.044.12.03.031.072.05.119.05h.017a.202.202 0 00.139-.055v-.134h-.148v.058zm.857-.215h-.069v.341h.239v-.058h-.17v-.283zm.724 0h-.069v.341h.069v-.341zm.708.228l-.14-.228h-.067v.341h.064v-.223l.137.223h.069v-.341h-.063v.228zm.64-.037h.17v-.058h-.17v-.075h.183v-.058h-.252v.341h.259v-.058h-.19v-.092zm1.552-.056h-.134v-.134h-.068v.341h.068v-.149h.134v.149h.069v-.341h-.069v.135zm.644.056h.171v-.058h-.171v-.075h.183v-.058h-.252v.341h.259v-.058h-.19v-.092zm.873 0c.06-.009.09-.041.09-.095l.001-.01a.08.08 0 00-.034-.066.19.19 0 00-.087-.021l-.014.001h.001-.145v.341h.069v-.143h.018a.1.1 0 01.038.008h-.001c.01.006.018.015.024.025l.074.108h.082l-.042-.067a.234.234 0 00-.075-.081l-.001-.001zm-.069-.047h-.051v-.086h.054l.014-.001c.02 0 .039.003.056.009h-.001a.045.045 0 01-.003.069.206.206 0 01-.057.009h-.013.001zm.727.047h.17v-.058h-.17v-.075h.183v-.058h-.252v.341h.259v-.058h-.19v-.092z"/></symbol><symbol id="smartphone" viewBox="0 0 64 32"><path fill="var(--color3, #757575)" d="M1.813 0H.32A.32.32 0 000 .32v2.773c0 .176.144.32.32.32h1.493a.32.32 0 00.32-.32V.32a.32.32 0 00-.32-.32zM.32.213h1.493c.059 0 .107.048.107.107v2.24H.213V.32C.213.261.261.213.32.213zM1.813 3.2H.32a.107.107 0 01-.107-.107v-.32H1.92v.32a.107.107 0 01-.107.107z"/><path fill="var(--color3, #757575)" d="M.502 2.931c.019.017.031.042.031.07s-.012.053-.031.07c-.02.018-.046.029-.076.029S.37 3.089.35 3.071c-.019-.017-.031-.042-.031-.07s.012-.053.031-.07c.02-.018.046-.029.076-.029s.056.011.076.029z"/></symbol><symbol id="twitter" viewBox="0 0 64 32"><path fill="var(--color4, #afb1b8)" d="M4.267.81a1.777 1.777 0 01-.495.137l-.009.001a.874.874 0 00.383-.477l.002-.006c-.16.096-.345.17-.543.21l-.011.002a.874.874 0 00-1.512.597.92.92 0 00.02.199A2.474 2.474 0 01.299.558a.876.876 0 00.268 1.169.853.853 0 01-.399-.11l.004.002v.01a.88.88 0 00.695.859l.006.001a.864.864 0 01-.222.029H.643a.766.766 0 01-.166-.015.883.883 0 00.817.609 1.744 1.744 0 01-1.083.373h-.01a1.79 1.79 0 01-.209-.013L0 3.473a2.44 2.44 0 001.334.393h.008c1.61 0 2.49-1.333 2.49-2.489 0-.038-.001-.076-.003-.113.173-.125.319-.275.434-.447l.004-.006z"/></symbol><symbol id="Vector" viewBox="0 0 64 32"><path d="M.746 11.496h11.94a.746.746 0 00.746-.746v-.995a.746.746 0 00-.746-.746h-.249V2.805l1.413-1.338a.75.75 0 10-.347-.351l-.002-.005-1.065 1.009v-.574A.746.746 0 0011.69.8H1.74a.746.746 0 00-.746.746v7.463H.745a.746.746 0 00-.746.746v.995c0 .412.334.746.746.746zM14.179.55a.249.249 0 010 .498.249.249 0 010-.498zm-12.687.995c0-.137.111-.249.249-.249h9.95c.137 0 .249.111.249.249V2.59l-.498.473v-1.02a.249.249 0 00-.249-.249H2.238a.249.249 0 00-.249.249v6.219a.25.25 0 00.249.249h8.955a.248.248 0 00.249-.249V3.747l.498-.471v5.732H1.492V1.546zm2.239 3.234h-.002a.746.746 0 10.519 1.282l.865.434a.252.252 0 00.297-.057L7.248 4.37l1.807 1.354a.248.248 0 00.32-.018l1.57-1.488v3.795H2.487V2.291h8.458v1.242L9.185 5.2 7.363 3.834a.247.247 0 00-.335.033L5.165 5.964l-.697-.348a.686.686 0 00.009-.09.746.746 0 00-.746-.746zm.249.747a.249.249 0 01-.498 0 .249.249 0 01.498 0zm1.493 3.98H7.96v.249a.249.249 0 01-.249.249h-1.99a.249.249 0 01-.249-.249v-.249zm-4.975.248c0-.137.111-.249.249-.249h4.229v.249c0 .412.334.746.746.746h1.99a.746.746 0 00.746-.746v-.249h4.229c.137 0 .249.111.249.249v.995a.249.249 0 01-.249.249H.747a.249.249 0 01-.249-.249v-.995z"/></symbol></defs></svg>